<?xml version="1.0" encoding="UTF-8" standalone="no"?>
<!-- Created with Inkscape (http://www.inkscape.org/) -->

<svg
   xmlns:dc="http://purl.org/dc/elements/1.1/"
   xmlns:cc="http://creativecommons.org/ns#"
   xmlns:rdf="http://www.w3.org/1999/02/22-rdf-syntax-ns#"
   xmlns:svg="http://www.w3.org/2000/svg"
   xmlns="http://www.w3.org/2000/svg"
   xmlns:sodipodi="http://sodipodi.sourceforge.net/DTD/sodipodi-0.dtd"
   xmlns:inkscape="http://www.inkscape.org/namespaces/inkscape"
   width="7.8200002mm"
   height="7.8200002mm"
   viewBox="0 0 7.8200002 7.8200002"
   version="1.1"
   id="svg1047"
   inkscape:version="0.92.3 (d244b95, 2018-08-02)"
   sodipodi:docname="step2_mostly_sunny.svg">
  <defs
     id="defs1041" />
  <sodipodi:namedview
     id="base"
     pagecolor="#ffffff"
     bordercolor="#666666"
     borderopacity="1.0"
     inkscape:pageopacity="0.0"
     inkscape:pageshadow="2"
     inkscape:zoom="11.2"
     inkscape:cx="14.127306"
     inkscape:cy="14.622758"
     inkscape:document-units="mm"
     inkscape:current-layer="g3983"
     showgrid="false"
     inkscape:window-width="1920"
     inkscape:window-height="1016"
     inkscape:window-x="0"
     inkscape:window-y="27"
     inkscape:window-maximized="1" />
  <metadata
     id="metadata1044">
    <rdf:RDF>
      <cc:Work
         rdf:about="">
        <dc:format>image/svg+xml</dc:format>
        <dc:type
           rdf:resource="http://purl.org/dc/dcmitype/StillImage" />
        <dc:title></dc:title>
      </cc:Work>
    </rdf:RDF>
  </metadata>
  <g
     inkscape:label="Ebene 1"
     inkscape:groupmode="layer"
     id="layer1"
     transform="translate(0,-289.18)">
    <g
       transform="translate(-238.65772,217.9384)"
       id="g3972"
       inkscape:export-filename="C:\Users\Pecca\Documents\Meteorologie\wolken-icons-gleich\Stufe3_starkBewölkt.png"
       inkscape:export-xdpi="300"
       inkscape:export-ydpi="300">
      <g
         id="g4938"
         transform="translate(-1.2399256,-0.15386168)">
        <g
           inkscape:export-ydpi="300"
           inkscape:export-xdpi="300"
           inkscape:export-filename="C:\Users\Pecca\Documents\Meteorologie\wolken-icons-gleich\Stufe2_eherSonnig.png"
           id="g3983"
           transform="translate(-7.1203827,0.05937064)">
          <g
             id="g3760"
             transform="matrix(1.0247145,0.18069416,-0.18069416,1.0247145,-24.532118,-58.937193)">
            <g
               transform="matrix(0.01935933,-0.00445398,0.00445398,0.01935933,279.64134,76.277842)"
               style="fill:#eb7a96;fill-opacity:1"
               id="g3595">
              <g
                 style="fill:#348292;fill-opacity:1"
                 id="g3593">
                <path
                   style="fill:#348292;fill-opacity:1"
                   inkscape:connector-curvature="0"
                   d="m 200.618,134.94 c -0.359,-0.027 -0.719,-0.027 -1.078,0 -35.678,0 -64.6,28.922 -64.6,64.6 0,4.021 3.259,7.28 7.28,7.28 4.005,-0.022 7.24,-3.275 7.24,-7.28 -0.022,-27.636 22.364,-50.058 50,-50.08 0.027,0 0.053,0 0.08,0 4.01,0.298 7.501,-2.711 7.799,-6.721 0.298,-4.01 -2.711,-7.502 -6.721,-7.799 z"
                   id="path3591" />
              </g>
            </g>
            <g
               transform="matrix(0.01935933,-0.00445398,0.00445398,0.01935933,279.64134,76.277842)"
               style="fill:#348292;fill-opacity:1;stroke:#348292;stroke-opacity:1"
               id="g3601">
              <g
                 style="fill:#348292;fill-opacity:1;stroke:#348292;stroke-opacity:1"
                 id="g3599">
                <path
                   style="fill:#348292;fill-opacity:1;stroke:#348292;stroke-opacity:1"
                   inkscape:connector-curvature="0"
                   d="M 199.569,92.7 C 140.563,92.692 92.723,140.519 92.714,199.525 c -0.004,28.347 11.258,55.534 31.305,75.575 20.009,20.059 47.188,31.316 75.52,31.28 59.006,0.008 106.847,-47.819 106.855,-106.825 C 306.402,140.549 258.575,92.708 199.569,92.7 Z m 65.25,172.24 c -36.053,36.053 -94.507,36.053 -130.56,0 -17.343,-17.343 -27.072,-40.874 -27.04,-65.4 -0.035,-24.492 9.697,-47.987 27.04,-65.28 v 0.12 c 36.053,-36.053 94.507,-36.053 130.56,0 36.054,36.053 36.054,94.507 0,130.56 z"
                   id="path3597" />
              </g>
            </g>
            <path
               inkscape:export-ydpi="300"
               inkscape:export-xdpi="300"
               id="path3635"
               d="m 283.78028,84.151618 -2.76144,0.507181 c -0.51157,0.09398 -1.00425,-0.245712 -1.09821,-0.7573 -0.0926,-0.504403 0.23646,-0.99046 0.73616,-1.094035 0.065,-0.652577 0.55092,-1.184171 1.20034,-1.303451 0.53833,-0.09899 1.07677,0.103898 1.41787,0.530342 0.0397,-0.0118 0.076,-0.02005 0.11137,-0.02705 0.59136,-0.108692 1.16075,0.283961 1.26932,0.875023 0.10887,0.591501 -0.28392,1.160917 -0.87531,1.269536 z m -3.07574,-1.204178 c -0.43223,0.07936 -0.71924,0.495507 -0.63988,0.92762 0.0794,0.432071 0.49547,0.718904 0.92769,0.639545 l 2.76144,-0.507192 c 0.51201,-0.09419 0.85191,-0.587 0.7579,-1.098891 -0.094,-0.511744 -0.58694,-0.851456 -1.09882,-0.757436 -0.0427,0.0094 -0.0875,0.02005 -0.14047,0.03853 -0.0303,0.0094 -0.0635,-3.14e-4 -0.0825,-0.02579 -0.30513,-0.40982 -0.80582,-0.607467 -1.30633,-0.515546 -0.60258,0.110707 -1.04888,0.61533 -1.08538,1.227266 -0.002,0.03446 -0.028,0.06119 -0.0616,0.06819 z"
               inkscape:connector-curvature="0"
               style="fill:#348292;fill-opacity:1;stroke:#348292;stroke-width:0.15043819;stroke-miterlimit:4;stroke-dasharray:none;stroke-opacity:1" />
          </g>
        </g>
      </g>
    </g>
  </g>
</svg>
