<?xml version="1.0" encoding="UTF-8" standalone="no"?>
<!-- Created with Inkscape (http://www.inkscape.org/) -->

<svg
   xmlns:dc="http://purl.org/dc/elements/1.1/"
   xmlns:cc="http://creativecommons.org/ns#"
   xmlns:rdf="http://www.w3.org/1999/02/22-rdf-syntax-ns#"
   xmlns:svg="http://www.w3.org/2000/svg"
   xmlns="http://www.w3.org/2000/svg"
   xmlns:sodipodi="http://sodipodi.sourceforge.net/DTD/sodipodi-0.dtd"
   xmlns:inkscape="http://www.inkscape.org/namespaces/inkscape"
   width="7.8200002mm"
   height="7.8200002mm"
   viewBox="0 0 7.8200002 7.8200002"
   version="1.1"
   id="svg1047"
   inkscape:version="0.92.3 (d244b95, 2018-08-02)"
   sodipodi:docname="step3_medium_cloudy.svg">
  <defs
     id="defs1041" />
  <sodipodi:namedview
     id="base"
     pagecolor="#ffffff"
     bordercolor="#666666"
     borderopacity="1.0"
     inkscape:pageopacity="0.0"
     inkscape:pageshadow="2"
     inkscape:zoom="11.2"
     inkscape:cx="14.127306"
     inkscape:cy="-4.5436133"
     inkscape:document-units="mm"
     inkscape:current-layer="g4020"
     showgrid="false"
     inkscape:window-width="1920"
     inkscape:window-height="1016"
     inkscape:window-x="0"
     inkscape:window-y="27"
     inkscape:window-maximized="1" />
  <metadata
     id="metadata1044">
    <rdf:RDF>
      <cc:Work
         rdf:about="">
        <dc:format>image/svg+xml</dc:format>
        <dc:type
           rdf:resource="http://purl.org/dc/dcmitype/StillImage" />
        <dc:title></dc:title>
      </cc:Work>
    </rdf:RDF>
  </metadata>
  <g
     inkscape:label="Ebene 1"
     inkscape:groupmode="layer"
     id="layer1"
     transform="translate(0,-289.18)">
    <g
       transform="translate(-238.65772,217.9384)"
       id="g3972"
       inkscape:export-filename="C:\Users\Pecca\Documents\Meteorologie\wolken-icons-gleich\Stufe3_starkBewölkt.png"
       inkscape:export-xdpi="300"
       inkscape:export-ydpi="300">
      <g
         id="g4938"
         transform="translate(-1.2399256,-0.15386168)">
        <g
           inkscape:export-ydpi="300"
           inkscape:export-xdpi="300"
           inkscape:export-filename="C:\Users\Pecca\Documents\Meteorologie\wolken-icons-gleich\Stufe2_eherSonnig.png"
           id="g3983"
           transform="translate(-7.1203827,0.05937064)">
          <g
             transform="translate(-8.5526275,0.28348541)"
             id="g3993"
             style="stroke-width:0.1;stroke-miterlimit:4;stroke-dasharray:none"
             inkscape:export-filename="C:\Users\Pecca\Documents\Meteorologie\wolken-icons-gleich\Stufe3_klarerHimmel.png"
             inkscape:export-xdpi="300"
             inkscape:export-ydpi="300">
            <g
               transform="translate(16.971619,-10.640182)"
               id="g4015"
               inkscape:export-filename="C:\Users\Pecca\Documents\Meteorologie\wolken-icons-gleich\Stufe2_eherBewölkt.png"
               inkscape:export-xdpi="300"
               inkscape:export-ydpi="300">
              <g
                 transform="translate(-8.4189915,0.15133618)"
                 id="g4020"
                 inkscape:export-filename="C:\Users\Pecca\Documents\Meteorologie\wolken-icons-gleich\Stufe3_mittlereBewölkung.png"
                 inkscape:export-xdpi="300"
                 inkscape:export-ydpi="300">
                <path
                   inkscape:export-ydpi="300"
                   inkscape:export-xdpi="300"
                   id="path3762"
                   d="m 251.29375,88.36482 -2.91216,0.440809 c -0.53952,0.08161 -1.04489,-0.290704 -1.12655,-0.830215 -0.0802,-0.531956 0.28057,-1.030761 0.80793,-1.122868 0.0896,-0.682103 0.61667,-1.223487 1.30154,-1.327157 0.56774,-0.08597 1.1256,0.144411 1.4692,0.60278 0.0417,-0.01151 0.0801,-0.01917 0.11767,-0.02447 0.62364,-0.09441 1.20772,0.335967 1.30208,0.959318 0.0944,0.623806 -0.33595,1.207887 -0.95962,1.302293 z m -3.18533,-1.363954 c -0.4558,0.06907 -0.77046,0.495877 -0.70149,0.951542 0.0694,0.455591 0.49583,0.770154 0.95165,0.701163 l 2.91215,-0.440808 c 0.53998,-0.08168 0.9126,-0.587447 0.83089,-1.127267 -0.0814,-0.539704 -0.58739,-0.912126 -1.1272,-0.830425 -0.0453,0.0069 -0.0924,0.01804 -0.14849,0.03593 -0.0319,0.0096 -0.0665,-0.0023 -0.0856,-0.02954 -0.30644,-0.439759 -0.82491,-0.663479 -1.35274,-0.583586 -0.63548,0.09624 -1.12006,0.610618 -1.17849,1.251051 -0.004,0.03597 -0.0313,0.06344 -0.0669,0.06925 z"
                   inkscape:connector-curvature="0"
                   style="fill:#004e5e;fill-opacity:1;stroke:#004e5e;stroke-width:0.12;stroke-miterlimit:4;stroke-dasharray:none;stroke-opacity:1" />
                <path
                   inkscape:export-ydpi="300"
                   inkscape:export-xdpi="300"
                   style="fill:#004e5e;fill-opacity:1;stroke:#004e5e;stroke-width:0.1;stroke-miterlimit:4;stroke-dasharray:none;stroke-opacity:1"
                   inkscape:connector-curvature="0"
                   d="m 253.15537,85.738655 -3.42202,-0.572861 c -0.63397,-0.106129 -1.06347,-0.708118 -0.95734,-1.342078 0.10464,-0.625045 0.6916,-1.051375 1.31578,-0.961375 0.35007,-0.730929 1.13849,-1.144068 1.94326,-1.009352 0.66716,0.111692 1.2074,0.573872 1.42428,1.212914 0.0509,0.003 0.0967,0.0078 0.14076,0.01508 0.73285,0.122679 1.22921,0.818425 1.10659,1.550914 -0.12236,0.733085 -0.81846,1.22939 -1.55131,1.106711 z m -3.06701,-2.693589 c -0.53563,-0.08966 -1.04423,0.273079 -1.13387,0.808519 -0.0896,0.53545 0.27314,1.043885 0.80876,1.133546 l 3.42204,0.572861 c 0.63449,0.106221 1.2369,-0.323565 1.34309,-0.957893 0.10616,-0.634149 -0.32366,-1.236365 -0.95799,-1.342551 -0.0532,-0.0089 -0.11019,-0.01368 -0.17935,-0.01479 -0.0391,-4.12e-4 -0.0737,-0.02686 -0.085,-0.06435 -0.18208,-0.604603 -0.68065,-1.044941 -1.30088,-1.148773 -0.74677,-0.12501 -1.4777,0.273536 -1.77764,0.969192 -0.0168,0.03901 -0.0582,0.05962 -0.10024,0.05295 z"
                   id="path3764" />
              </g>
            </g>
          </g>
        </g>
      </g>
    </g>
  </g>
</svg>
