<?xml version="1.0" encoding="UTF-8" standalone="no"?>
<!-- Created with Inkscape (http://www.inkscape.org/) -->

<svg
   xmlns:dc="http://purl.org/dc/elements/1.1/"
   xmlns:cc="http://creativecommons.org/ns#"
   xmlns:rdf="http://www.w3.org/1999/02/22-rdf-syntax-ns#"
   xmlns:svg="http://www.w3.org/2000/svg"
   xmlns="http://www.w3.org/2000/svg"
   xmlns:sodipodi="http://sodipodi.sourceforge.net/DTD/sodipodi-0.dtd"
   xmlns:inkscape="http://www.inkscape.org/namespaces/inkscape"
   width="7.8200002mm"
   height="7.8200002mm"
   viewBox="0 0 7.8200002 7.8200002"
   version="1.1"
   id="svg1047"
   inkscape:version="0.92.3 (d244b95, 2018-08-02)"
   sodipodi:docname="step3_sunny.svg">
  <defs
     id="defs1041" />
  <sodipodi:namedview
     id="base"
     pagecolor="#ffffff"
     bordercolor="#666666"
     borderopacity="1.0"
     inkscape:pageopacity="0.0"
     inkscape:pageshadow="2"
     inkscape:zoom="11.2"
     inkscape:cx="14.127306"
     inkscape:cy="14.622758"
     inkscape:document-units="mm"
     inkscape:current-layer="g3993"
     showgrid="false"
     inkscape:window-width="1920"
     inkscape:window-height="1016"
     inkscape:window-x="0"
     inkscape:window-y="27"
     inkscape:window-maximized="1" />
  <metadata
     id="metadata1044">
    <rdf:RDF>
      <cc:Work
         rdf:about="">
        <dc:format>image/svg+xml</dc:format>
        <dc:type
           rdf:resource="http://purl.org/dc/dcmitype/StillImage" />
        <dc:title></dc:title>
      </cc:Work>
    </rdf:RDF>
  </metadata>
  <g
     inkscape:label="Ebene 1"
     inkscape:groupmode="layer"
     id="layer1"
     transform="translate(0,-289.18)">
    <g
       transform="translate(-238.65772,217.9384)"
       id="g3972"
       inkscape:export-filename="C:\Users\Pecca\Documents\Meteorologie\wolken-icons-gleich\Stufe3_starkBewölkt.png"
       inkscape:export-xdpi="300"
       inkscape:export-ydpi="300">
      <g
         id="g4938"
         transform="translate(-1.2399256,-0.15386168)">
        <g
           inkscape:export-ydpi="300"
           inkscape:export-xdpi="300"
           inkscape:export-filename="C:\Users\Pecca\Documents\Meteorologie\wolken-icons-gleich\Stufe2_eherSonnig.png"
           id="g3983"
           transform="translate(-7.1203827,0.05937064)">
          <g
             transform="translate(-8.5526275,0.28348541)"
             id="g3993"
             style="stroke-width:0.1;stroke-miterlimit:4;stroke-dasharray:none"
             inkscape:export-filename="C:\Users\Pecca\Documents\Meteorologie\wolken-icons-gleich\Stufe3_klarerHimmel.png"
             inkscape:export-xdpi="300"
             inkscape:export-ydpi="300">
            <g
               transform="matrix(1.8593018,0,0,1.8593018,112.25209,-357.9029)"
               id="g3615"
               style="fill:#004e5e;fill-opacity:1;stroke:#ffffff;stroke-width:0.08067544;stroke-miterlimit:4;stroke-dasharray:none;stroke-opacity:1">
              <g
                 transform="matrix(0.01704113,0,0,0.01704113,75.784244,229.37138)"
                 style="fill:#004e5e;fill-opacity:1;stroke:#ffffff;stroke-width:4.73416042;stroke-miterlimit:4;stroke-dasharray:none;stroke-opacity:1"
                 id="g3607">
                <g
                   style="fill:#004e5e;fill-opacity:1;stroke:#ffffff;stroke-width:4.73416042;stroke-miterlimit:4;stroke-dasharray:none;stroke-opacity:1"
                   id="g3605">
                  <path
                     style="fill:#004e5e;fill-opacity:1;stroke:#ffffff;stroke-width:4.73416042;stroke-miterlimit:4;stroke-dasharray:none;stroke-opacity:1"
                     inkscape:connector-curvature="0"
                     d="m 200.618,134.94 c -0.359,-0.027 -0.719,-0.027 -1.078,0 -35.678,0 -64.6,28.922 -64.6,64.6 0,4.021 3.259,7.28 7.28,7.28 4.005,-0.022 7.24,-3.275 7.24,-7.28 -0.022,-27.636 22.364,-50.058 50,-50.08 0.027,0 0.053,0 0.08,0 4.01,0.298 7.501,-2.711 7.799,-6.721 0.298,-4.01 -2.711,-7.502 -6.721,-7.799 z"
                     id="path3603" />
                </g>
              </g>
              <g
                 transform="matrix(0.01704113,0,0,0.01704113,75.784244,229.37138)"
                 style="fill:#004e5e;fill-opacity:1;stroke:#ffffff;stroke-width:4.73416042;stroke-miterlimit:4;stroke-dasharray:none;stroke-opacity:1"
                 id="g3613">
                <g
                   style="fill:#004e5e;fill-opacity:1;stroke:#ffffff;stroke-width:4.73416042;stroke-miterlimit:4;stroke-dasharray:none;stroke-opacity:1"
                   id="g3611">
                  <path
                     style="fill:#004e5e;fill-opacity:1;stroke:#ffffff;stroke-width:4.73416042;stroke-miterlimit:4;stroke-dasharray:none;stroke-opacity:1"
                     inkscape:connector-curvature="0"
                     d="M 199.569,92.7 C 140.563,92.692 92.723,140.519 92.714,199.525 c -0.004,28.347 11.258,55.534 31.305,75.575 20.009,20.059 47.188,31.316 75.52,31.28 59.006,0.008 106.847,-47.819 106.855,-106.825 C 306.402,140.549 258.575,92.708 199.569,92.7 Z m 65.25,172.24 c -36.053,36.053 -94.507,36.053 -130.56,0 -17.343,-17.343 -27.072,-40.874 -27.04,-65.4 -0.035,-24.492 9.697,-47.987 27.04,-65.28 v 0.12 c 36.053,-36.053 94.507,-36.053 130.56,0 36.054,36.053 36.054,94.507 0,130.56 z"
                     id="path3609" />
                </g>
              </g>
            </g>
          </g>
        </g>
      </g>
    </g>
  </g>
</svg>
