<?xml version="1.0" encoding="UTF-8" standalone="no"?>
<!-- Created with Inkscape (http://www.inkscape.org/) -->

<svg
   xmlns:dc="http://purl.org/dc/elements/1.1/"
   xmlns:cc="http://creativecommons.org/ns#"
   xmlns:rdf="http://www.w3.org/1999/02/22-rdf-syntax-ns#"
   xmlns:svg="http://www.w3.org/2000/svg"
   xmlns="http://www.w3.org/2000/svg"
   xmlns:sodipodi="http://sodipodi.sourceforge.net/DTD/sodipodi-0.dtd"
   xmlns:inkscape="http://www.inkscape.org/namespaces/inkscape"
   width="7.8200002mm"
   height="7.8200002mm"
   viewBox="0 0 7.8200002 7.8200002"
   version="1.1"
   id="svg1047"
   inkscape:version="0.92.3 (d244b95, 2018-08-02)"
   sodipodi:docname="step3_cloud_max.svg">
  <defs
     id="defs1041" />
  <sodipodi:namedview
     id="base"
     pagecolor="#ffffff"
     bordercolor="#666666"
     borderopacity="1.0"
     inkscape:pageopacity="0.0"
     inkscape:pageshadow="2"
     inkscape:zoom="11.2"
     inkscape:cx="14.127306"
     inkscape:cy="14.622758"
     inkscape:document-units="mm"
     inkscape:current-layer="g3972"
     showgrid="false"
     inkscape:window-width="1920"
     inkscape:window-height="1016"
     inkscape:window-x="0"
     inkscape:window-y="27"
     inkscape:window-maximized="1" />
  <metadata
     id="metadata1044">
    <rdf:RDF>
      <cc:Work
         rdf:about="">
        <dc:format>image/svg+xml</dc:format>
        <dc:type
           rdf:resource="http://purl.org/dc/dcmitype/StillImage" />
        <dc:title></dc:title>
      </cc:Work>
    </rdf:RDF>
  </metadata>
  <g
     inkscape:label="Ebene 1"
     inkscape:groupmode="layer"
     id="layer1"
     transform="translate(0,-289.18)">
    <g
       transform="translate(-238.65772,217.9384)"
       id="g3972"
       inkscape:export-filename="C:\Users\Pecca\Documents\Meteorologie\wolken-icons-gleich\Stufe3_starkBewölkt.png"
       inkscape:export-xdpi="300"
       inkscape:export-ydpi="300">
      <g
         inkscape:export-ydpi="300"
         inkscape:export-xdpi="300"
         style="fill:#004e5e;fill-opacity:1;stroke:#004e5e;stroke-width:0.34435368;stroke-miterlimit:4;stroke-dasharray:none;stroke-opacity:1"
         transform="matrix(0.17435754,-0.01606651,0.01461686,0.19164968,238.59512,70.827292)"
         id="g3824">
        <g
           style="fill:#004e5e;fill-opacity:1;stroke:#004e5e;stroke-width:0.34435368;stroke-miterlimit:4;stroke-dasharray:none;stroke-opacity:1"
           id="g3774" />
        <g
           style="fill:#004e5e;fill-opacity:1;stroke:#004e5e;stroke-width:0.34435368;stroke-miterlimit:4;stroke-dasharray:none;stroke-opacity:1"
           id="g3776" />
        <g
           style="fill:#004e5e;fill-opacity:1;stroke:#004e5e;stroke-width:0.34435368;stroke-miterlimit:4;stroke-dasharray:none;stroke-opacity:1"
           id="g3778" />
        <g
           style="fill:#004e5e;fill-opacity:1;stroke:#004e5e;stroke-width:0.34435368;stroke-miterlimit:4;stroke-dasharray:none;stroke-opacity:1"
           id="g3780" />
        <g
           style="fill:#004e5e;fill-opacity:1;stroke:#004e5e;stroke-width:0.34435368;stroke-miterlimit:4;stroke-dasharray:none;stroke-opacity:1"
           id="g3782" />
        <g
           style="fill:#004e5e;fill-opacity:1;stroke:#004e5e;stroke-width:0.34435368;stroke-miterlimit:4;stroke-dasharray:none;stroke-opacity:1"
           id="g3784" />
        <g
           style="fill:#004e5e;fill-opacity:1;stroke:#004e5e;stroke-width:0.34435368;stroke-miterlimit:4;stroke-dasharray:none;stroke-opacity:1"
           id="g3786" />
        <g
           style="fill:#004e5e;fill-opacity:1;stroke:#004e5e;stroke-width:0.34435368;stroke-miterlimit:4;stroke-dasharray:none;stroke-opacity:1"
           id="g3788" />
        <g
           style="fill:#004e5e;fill-opacity:1;stroke:#004e5e;stroke-width:0.34435368;stroke-miterlimit:4;stroke-dasharray:none;stroke-opacity:1"
           id="g3790" />
        <g
           style="fill:#004e5e;fill-opacity:1;stroke:#004e5e;stroke-width:0.34435368;stroke-miterlimit:4;stroke-dasharray:none;stroke-opacity:1"
           id="g3792" />
        <g
           style="fill:#004e5e;fill-opacity:1;stroke:#004e5e;stroke-width:0.34435368;stroke-miterlimit:4;stroke-dasharray:none;stroke-opacity:1"
           id="g3794" />
        <g
           style="fill:#004e5e;fill-opacity:1;stroke:#004e5e;stroke-width:0.34435368;stroke-miterlimit:4;stroke-dasharray:none;stroke-opacity:1"
           id="g3796" />
        <g
           style="fill:#004e5e;fill-opacity:1;stroke:#004e5e;stroke-width:0.34435368;stroke-miterlimit:4;stroke-dasharray:none;stroke-opacity:1"
           id="g3798" />
        <g
           style="fill:#004e5e;fill-opacity:1;stroke:#004e5e;stroke-width:0.34435368;stroke-miterlimit:4;stroke-dasharray:none;stroke-opacity:1"
           id="g3800" />
        <g
           style="fill:#004e5e;fill-opacity:1;stroke:#004e5e;stroke-width:0.34435368;stroke-miterlimit:4;stroke-dasharray:none;stroke-opacity:1"
           id="g3802" />
        <g
           style="fill:#004e5e;fill-opacity:1;stroke:#004e5e;stroke-opacity:1"
           id="g3822"
           transform="matrix(0.90816603,0.07247487,-0.07247487,0.90816603,4.045265,1.4949146)">
          <g
             transform="translate(3.5598319,2.7020113)"
             style="fill:#004e5e;fill-opacity:1;stroke:#004e5e;stroke-width:0.58639073;stroke-miterlimit:4;stroke-dasharray:none;stroke-opacity:1"
             id="g3808">
            <path
               style="fill:#004e5e;fill-opacity:1;stroke:#004e5e;stroke-width:0.58639073;stroke-miterlimit:4;stroke-dasharray:none;stroke-opacity:1"
               inkscape:connector-curvature="0"
               d="M 25.615,33.608 H 6.442 C 2.89,33.608 0,30.719 0,27.167 c 0,-3.502 2.81,-6.361 6.294,-6.44 1.241,-4.303 5.161,-7.274 9.67,-7.274 3.738,0 7.104,2.026 8.869,5.311 0.28,-0.031 0.534,-0.046 0.781,-0.046 4.106,0 7.446,3.339 7.446,7.443 0.002,4.107 -3.339,7.447 -7.445,7.447 z M 6.442,21.726 C 3.441,21.726 1,24.167 1,27.167 c 0,3 2.441,5.44 5.442,5.44 h 19.173 c 3.555,0 6.446,-2.892 6.446,-6.446 0,-3.553 -2.892,-6.443 -6.446,-6.443 -0.298,0 -0.613,0.026 -0.991,0.083 -0.214,0.032 -0.426,-0.079 -0.522,-0.273 -1.544,-3.129 -4.663,-5.074 -8.138,-5.074 -4.184,0 -7.804,2.839 -8.804,6.904 -0.056,0.228 -0.263,0.378 -0.498,0.38 z"
               id="path3804" />
            <path
               style="fill:#004e5e;fill-opacity:1;stroke:#004e5e;stroke-width:0.58639073;stroke-miterlimit:4;stroke-dasharray:none;stroke-opacity:1"
               inkscape:connector-curvature="0"
               d="m 25.615,33.608 c -0.276,0 -0.5,-0.224 -0.5,-0.5 0,-0.276 0.224,-0.5 0.5,-0.5 3.555,0 6.446,-2.892 6.446,-6.446 0,-3.553 -2.892,-6.443 -6.446,-6.443 -1.862,0 -3.633,0.805 -4.858,2.208 -0.181,0.208 -0.497,0.23 -0.705,0.048 -0.208,-0.181 -0.229,-0.497 -0.048,-0.705 1.414,-1.621 3.459,-2.55 5.611,-2.55 4.106,0 7.446,3.339 7.446,7.443 10e-4,4.105 -3.34,7.445 -7.446,7.445 z"
               id="path3806" />
          </g>
          <g
             transform="translate(4.4232913,1.9743265)"
             style="fill:#004e5e;fill-opacity:1;stroke:#004e5e;stroke-width:0.58639073;stroke-miterlimit:4;stroke-dasharray:none;stroke-opacity:1"
             id="g3814">
            <path
               style="fill:#004e5e;fill-opacity:1;stroke:#004e5e;stroke-width:0.58639073;stroke-miterlimit:4;stroke-dasharray:none;stroke-opacity:1"
               inkscape:connector-curvature="0"
               d="m 32.615,26.608 c -0.276,0 -0.5,-0.224 -0.5,-0.5 0,-0.276 0.224,-0.5 0.5,-0.5 3.555,0 6.446,-2.892 6.446,-6.446 0,-3.553 -2.892,-6.443 -6.446,-6.443 -0.298,0 -0.613,0.026 -0.991,0.083 C 31.41,12.834 31.198,12.723 31.102,12.529 29.558,9.4 26.439,7.455 22.964,7.455 c -4.184,0 -7.804,2.839 -8.804,6.904 -0.056,0.228 -0.261,0.376 -0.498,0.38 l -0.127,-0.007 c -0.276,0 -0.547,-0.227 -0.547,-0.502 0,-0.22 0.112,-0.409 0.298,-0.476 1.232,-4.316 5.159,-7.299 9.677,-7.299 3.738,0 7.104,2.026 8.869,5.311 0.28,-0.031 0.534,-0.046 0.781,-0.046 4.106,0 7.446,3.339 7.446,7.443 0.003,4.105 -3.338,7.445 -7.444,7.445 z"
               id="path3810" />
            <path
               style="fill:#004e5e;fill-opacity:1;stroke:#004e5e;stroke-width:0.58639073;stroke-miterlimit:4;stroke-dasharray:none;stroke-opacity:1"
               inkscape:connector-curvature="0"
               d="m 32.615,26.608 c -0.276,0 -0.5,-0.224 -0.5,-0.5 0,-0.276 0.224,-0.5 0.5,-0.5 3.555,0 6.446,-2.892 6.446,-6.446 0,-3.553 -2.892,-6.443 -6.446,-6.443 -1.862,0 -3.633,0.805 -4.858,2.208 -0.181,0.209 -0.497,0.23 -0.705,0.048 -0.208,-0.181 -0.229,-0.497 -0.048,-0.705 1.414,-1.621 3.459,-2.55 5.611,-2.55 4.106,0 7.446,3.339 7.446,7.443 10e-4,4.105 -3.34,7.445 -7.446,7.445 z"
               id="path3812" />
          </g>
          <g
             id="g3820"
             style="fill:#004e5e;fill-opacity:1;stroke:#004e5e;stroke-width:0.58639073;stroke-miterlimit:4;stroke-dasharray:none;stroke-opacity:1"
             transform="matrix(-0.97900958,0.20381426,0.20381426,0.97900958,31.544293,-6.1071706)">
            <path
               id="path3816"
               d="m 32.615,26.608 c -0.276,0 -0.5,-0.224 -0.5,-0.5 0,-0.276 0.224,-0.5 0.5,-0.5 3.555,0 6.446,-2.892 6.446,-6.446 0,-3.553 -2.892,-6.443 -6.446,-6.443 -0.298,0 -0.613,0.026 -0.991,0.083 C 31.41,12.834 31.198,12.723 31.102,12.529 29.558,9.4 26.439,7.455 22.964,7.455 c -4.184,0 -7.804,2.839 -8.804,6.904 -0.056,0.228 -0.261,0.376 -0.498,0.38 l -0.127,-0.007 c -0.276,0 -0.547,-0.227 -0.547,-0.502 0,-0.22 0.112,-0.409 0.298,-0.476 1.232,-4.316 5.159,-7.299 9.677,-7.299 3.738,0 7.104,2.026 8.869,5.311 0.28,-0.031 0.534,-0.046 0.781,-0.046 4.106,0 7.446,3.339 7.446,7.443 0.003,4.105 -3.338,7.445 -7.444,7.445 z"
               inkscape:connector-curvature="0"
               style="fill:#004e5e;fill-opacity:1;stroke:#004e5e;stroke-width:0.58639073;stroke-miterlimit:4;stroke-dasharray:none;stroke-opacity:1" />
            <path
               id="path3818"
               d="m 32.615,26.608 c -0.276,0 -0.5,-0.224 -0.5,-0.5 0,-0.276 0.224,-0.5 0.5,-0.5 3.555,0 6.446,-2.892 6.446,-6.446 0,-3.553 -2.892,-6.443 -6.446,-6.443 -1.862,0 -3.633,0.805 -4.858,2.208 -0.181,0.209 -0.497,0.23 -0.705,0.048 -0.208,-0.181 -0.229,-0.497 -0.048,-0.705 1.414,-1.621 3.459,-2.55 5.611,-2.55 4.106,0 7.446,3.339 7.446,7.443 10e-4,4.105 -3.34,7.445 -7.446,7.445 z"
               inkscape:connector-curvature="0"
               style="fill:#004e5e;fill-opacity:1;stroke:#004e5e;stroke-width:0.58639073;stroke-miterlimit:4;stroke-dasharray:none;stroke-opacity:1" />
          </g>
        </g>
      </g>
    </g>
  </g>
</svg>
