<?xml version="1.0" encoding="UTF-8" standalone="no"?>
<!-- Created with Inkscape (http://www.inkscape.org/) -->

<svg
   xmlns:dc="http://purl.org/dc/elements/1.1/"
   xmlns:cc="http://creativecommons.org/ns#"
   xmlns:rdf="http://www.w3.org/1999/02/22-rdf-syntax-ns#"
   xmlns:svg="http://www.w3.org/2000/svg"
   xmlns="http://www.w3.org/2000/svg"
   xmlns:sodipodi="http://sodipodi.sourceforge.net/DTD/sodipodi-0.dtd"
   xmlns:inkscape="http://www.inkscape.org/namespaces/inkscape"
   width="7.8176351mm"
   height="7.8019967mm"
   viewBox="0 0 7.8176351 7.8019968"
   version="1.1"
   id="svg1047"
   inkscape:version="0.92.3 (d244b95, 2018-08-02)"
   sodipodi:docname="step1_.svg">
  <defs
     id="defs1041" />
  <sodipodi:namedview
     id="base"
     pagecolor="#ffffff"
     bordercolor="#666666"
     borderopacity="1.0"
     inkscape:pageopacity="0.0"
     inkscape:pageshadow="2"
     inkscape:zoom="11.2"
     inkscape:cx="18.449903"
     inkscape:cy="12.666296"
     inkscape:document-units="mm"
     inkscape:current-layer="flowRoot3455"
     showgrid="false"
     inkscape:window-width="1920"
     inkscape:window-height="1016"
     inkscape:window-x="0"
     inkscape:window-y="27"
     inkscape:window-maximized="1"
     fit-margin-top="0"
     fit-margin-left="0"
     fit-margin-right="0"
     fit-margin-bottom="0" />
  <metadata
     id="metadata1044">
    <rdf:RDF>
      <cc:Work
         rdf:about="">
        <dc:format>image/svg+xml</dc:format>
        <dc:type
           rdf:resource="http://purl.org/dc/dcmitype/StillImage" />
        <dc:title></dc:title>
      </cc:Work>
    </rdf:RDF>
  </metadata>
  <g
     inkscape:label="Ebene 1"
     inkscape:groupmode="layer"
     id="layer1"
     transform="translate(1.143687,-289.02676)">
    <g
       transform="translate(-238.65772,217.9384)"
       id="g3972"
       inkscape:export-filename="C:\Users\Pecca\Documents\Meteorologie\wolken-icons-gleich\Stufe3_starkBewölkt.png"
       inkscape:export-xdpi="300"
       inkscape:export-ydpi="300">
      <g
         id="g4938"
         transform="translate(-1.2399256,-0.15386168)">
        <g
           inkscape:export-ydpi="300"
           inkscape:export-xdpi="300"
           inkscape:export-filename="C:\Users\Pecca\Documents\Meteorologie\wolken-icons-gleich\Stufe2_eherSonnig.png"
           id="g3983"
           transform="translate(-7.1203827,0.05937064)">
          <g
             transform="translate(-8.5526275,0.28348541)"
             id="g3993"
             style="stroke-width:0.1;stroke-miterlimit:4;stroke-dasharray:none"
             inkscape:export-filename="C:\Users\Pecca\Documents\Meteorologie\wolken-icons-gleich\Stufe3_klarerHimmel.png"
             inkscape:export-xdpi="300"
             inkscape:export-ydpi="300">
            <g
               transform="translate(16.971619,-10.640182)"
               id="g4015"
               inkscape:export-filename="C:\Users\Pecca\Documents\Meteorologie\wolken-icons-gleich\Stufe2_eherBewölkt.png"
               inkscape:export-xdpi="300"
               inkscape:export-ydpi="300">
              <g
                 transform="translate(-16.837983,0.08303784)"
                 id="g4033"
                 inkscape:export-filename="C:\Users\Pecca\Documents\Meteorologie\wolken-icons-gleich\Stufe3_leichtBedeckt.png"
                 inkscape:export-xdpi="300"
                 inkscape:export-ydpi="300">
                <g
                   transform="translate(143.185,17.870419)"
                   id="g3318"
                   inkscape:export-xdpi="300"
                   inkscape:export-ydpi="300">
                  <g
                     transform="matrix(1.047524,-0.01184562,0.01184562,1.047524,1.6127057,-30.807419)"
                     id="g3126">
                    <g
                       transform="matrix(0.95451002,0.0107938,-0.0107938,0.95451002,-139.3275,0.53370221)"
                       id="g4060">
                      <g
                         transform="translate(0.11693643,0.03340869)"
                         id="g3903"
                         inkscape:export-filename="C:\Users\Pecca\Documents\Meteorologie\wolken-icons-gleich\Stufe1.png"
                         inkscape:export-xdpi="300"
                         inkscape:export-ydpi="300">
                        <g
                           aria-label="?"
                           transform="matrix(0.13501414,0,0,0.15088394,201.19194,9.5536955)"
                           style="font-style:normal;font-weight:normal;font-size:40px;line-height:1.25;font-family:sans-serif;letter-spacing:0px;word-spacing:0px;fill:#85cbcf;fill-opacity:1;stroke:none"
                           id="flowRoot3455">
                          <path
                             d="m 426.84961,588.02148 h 3.96484 v 4.96094 h -3.96484 z m 3.84766,-2.87109 h -3.73047 v -3.00781 q 0,-1.97266 0.54687,-3.24219 0.54688,-1.26953 2.30469,-2.94922 l 1.75781,-1.73828 q 1.11328,-1.03516 1.60156,-1.95312 0.50782,-0.91797 0.50782,-1.875 0,-1.73829 -1.28907,-2.8125 -1.26953,-1.07422 -3.3789,-1.07422 -1.54297,0 -3.30078,0.68359 -1.73828,0.68359 -3.63282,1.99219 v -3.67188 q 1.83594,-1.11328 3.71094,-1.66015 1.89453,-0.54688 3.90625,-0.54688 3.59375,0 5.76172,1.89453 2.1875,1.89453 2.1875,5 0,1.48438 -0.70312,2.83203 -0.70313,1.32813 -2.46094,3.00782 l -1.71875,1.67968 q -0.91797,0.91797 -1.3086,1.44532 -0.37109,0.50781 -0.52734,0.99609 -0.11719,0.41016 -0.17578,0.99609 -0.0586,0.58594 -0.0586,1.60157 z"
                             style=""
                             id="path5840" />
                        </g>
                        <g
                           inkscape:export-ydpi="300"
                           inkscape:export-xdpi="300"
                           style="fill:#85cbcf;fill-opacity:1;stroke:#85cbcf;stroke-width:0.43932191;stroke-miterlimit:4;stroke-dasharray:none;stroke-opacity:1"
                           transform="matrix(0.22307105,1.5408189e-5,-1.5408189e-5,0.22307105,255.54291,90.95863)"
                           id="g3587">
                          <g
                             style="fill:#85cbcf;fill-opacity:1;stroke:#85cbcf;stroke-width:0.43932191;stroke-miterlimit:4;stroke-dasharray:none;stroke-opacity:1"
                             id="g3555">
                            <path
                               style="fill:#85cbcf;fill-opacity:1;stroke:#85cbcf;stroke-width:0.43932191;stroke-miterlimit:4;stroke-dasharray:none;stroke-opacity:1"
                               inkscape:connector-curvature="0"
                               d="M 25.615,26.608 H 6.442 C 2.89,26.608 0,23.719 0,20.167 c 0,-3.502 2.81,-6.361 6.294,-6.44 1.241,-4.303 5.161,-7.274 9.67,-7.274 3.738,0 7.104,2.026 8.869,5.311 0.28,-0.031 0.534,-0.046 0.781,-0.046 4.106,0 7.446,3.339 7.446,7.443 0.002,4.107 -3.339,7.447 -7.445,7.447 z M 6.442,14.726 C 3.441,14.726 1,17.167 1,20.167 c 0,3 2.441,5.44 5.442,5.44 h 19.173 c 3.555,0 6.446,-2.892 6.446,-6.446 0,-3.553 -2.892,-6.443 -6.446,-6.443 -0.298,0 -0.613,0.026 -0.991,0.083 -0.214,0.032 -0.426,-0.079 -0.522,-0.273 -1.544,-3.129 -4.663,-5.074 -8.138,-5.074 -4.184,0 -7.804,2.839 -8.804,6.904 -0.056,0.228 -0.275,0.377 -0.498,0.38 z"
                               id="path3551" />
                            <path
                               style="fill:#85cbcf;fill-opacity:1;stroke:#85cbcf;stroke-width:0.43932191;stroke-miterlimit:4;stroke-dasharray:none;stroke-opacity:1"
                               inkscape:connector-curvature="0"
                               d="m 25.615,26.608 c -0.276,0 -0.5,-0.224 -0.5,-0.5 0,-0.276 0.224,-0.5 0.5,-0.5 3.555,0 6.446,-2.892 6.446,-6.446 0,-3.553 -2.892,-6.443 -6.446,-6.443 -1.862,0 -3.633,0.805 -4.858,2.208 -0.181,0.208 -0.497,0.23 -0.705,0.048 -0.208,-0.181 -0.229,-0.497 -0.048,-0.705 1.414,-1.621 3.459,-2.55 5.611,-2.55 4.106,0 7.446,3.339 7.446,7.443 10e-4,4.105 -3.34,7.445 -7.446,7.445 z"
                               id="path3553" />
                          </g>
                          <g
                             style="fill:#85cbcf;fill-opacity:1;stroke:#85cbcf;stroke-width:0.43932191;stroke-miterlimit:4;stroke-dasharray:none;stroke-opacity:1"
                             id="g3557" />
                          <g
                             style="fill:#85cbcf;fill-opacity:1;stroke:#85cbcf;stroke-width:0.43932191;stroke-miterlimit:4;stroke-dasharray:none;stroke-opacity:1"
                             id="g3559" />
                          <g
                             style="fill:#85cbcf;fill-opacity:1;stroke:#85cbcf;stroke-width:0.43932191;stroke-miterlimit:4;stroke-dasharray:none;stroke-opacity:1"
                             id="g3561" />
                          <g
                             style="fill:#85cbcf;fill-opacity:1;stroke:#85cbcf;stroke-width:0.43932191;stroke-miterlimit:4;stroke-dasharray:none;stroke-opacity:1"
                             id="g3563" />
                          <g
                             style="fill:#85cbcf;fill-opacity:1;stroke:#85cbcf;stroke-width:0.43932191;stroke-miterlimit:4;stroke-dasharray:none;stroke-opacity:1"
                             id="g3565" />
                          <g
                             style="fill:#85cbcf;fill-opacity:1;stroke:#85cbcf;stroke-width:0.43932191;stroke-miterlimit:4;stroke-dasharray:none;stroke-opacity:1"
                             id="g3567" />
                          <g
                             style="fill:#85cbcf;fill-opacity:1;stroke:#85cbcf;stroke-width:0.43932191;stroke-miterlimit:4;stroke-dasharray:none;stroke-opacity:1"
                             id="g3569" />
                          <g
                             style="fill:#85cbcf;fill-opacity:1;stroke:#85cbcf;stroke-width:0.43932191;stroke-miterlimit:4;stroke-dasharray:none;stroke-opacity:1"
                             id="g3571" />
                          <g
                             style="fill:#85cbcf;fill-opacity:1;stroke:#85cbcf;stroke-width:0.43932191;stroke-miterlimit:4;stroke-dasharray:none;stroke-opacity:1"
                             id="g3573" />
                          <g
                             style="fill:#85cbcf;fill-opacity:1;stroke:#85cbcf;stroke-width:0.43932191;stroke-miterlimit:4;stroke-dasharray:none;stroke-opacity:1"
                             id="g3575" />
                          <g
                             style="fill:#85cbcf;fill-opacity:1;stroke:#85cbcf;stroke-width:0.43932191;stroke-miterlimit:4;stroke-dasharray:none;stroke-opacity:1"
                             id="g3577" />
                          <g
                             style="fill:#85cbcf;fill-opacity:1;stroke:#85cbcf;stroke-width:0.43932191;stroke-miterlimit:4;stroke-dasharray:none;stroke-opacity:1"
                             id="g3579" />
                          <g
                             style="fill:#85cbcf;fill-opacity:1;stroke:#85cbcf;stroke-width:0.43932191;stroke-miterlimit:4;stroke-dasharray:none;stroke-opacity:1"
                             id="g3581" />
                          <g
                             style="fill:#85cbcf;fill-opacity:1;stroke:#85cbcf;stroke-width:0.43932191;stroke-miterlimit:4;stroke-dasharray:none;stroke-opacity:1"
                             id="g3583" />
                          <g
                             style="fill:#85cbcf;fill-opacity:1;stroke:#85cbcf;stroke-width:0.43932191;stroke-miterlimit:4;stroke-dasharray:none;stroke-opacity:1"
                             id="g3585" />
                        </g>
                      </g>
                    </g>
                  </g>
                </g>
              </g>
            </g>
          </g>
        </g>
      </g>
    </g>
  </g>
</svg>
