<?xml version="1.0" encoding="UTF-8" standalone="no"?>
<!-- Created with Inkscape (http://www.inkscape.org/) -->

<svg
   xmlns:dc="http://purl.org/dc/elements/1.1/"
   xmlns:cc="http://creativecommons.org/ns#"
   xmlns:rdf="http://www.w3.org/1999/02/22-rdf-syntax-ns#"
   xmlns:svg="http://www.w3.org/2000/svg"
   xmlns="http://www.w3.org/2000/svg"
   xmlns:sodipodi="http://sodipodi.sourceforge.net/DTD/sodipodi-0.dtd"
   xmlns:inkscape="http://www.inkscape.org/namespaces/inkscape"
   width="13.41508mm"
   height="17.551052mm"
   viewBox="0 0 13.415081 17.551053"
   version="1.1"
   id="svg4672"
   inkscape:version="0.92.3 (2405546, 2018-03-11)"
   sodipodi:docname="rain_strongrain.svg">
  <defs
     id="defs4666" />
  <sodipodi:namedview
     id="base"
     pagecolor="#ffffff"
     bordercolor="#666666"
     borderopacity="1.0"
     inkscape:pageopacity="0.0"
     inkscape:pageshadow="2"
     inkscape:zoom="3.959798"
     inkscape:cx="72.055941"
     inkscape:cy="1.8105482"
     inkscape:document-units="mm"
     inkscape:current-layer="layer1"
     showgrid="false"
     fit-margin-top="0"
     fit-margin-left="0"
     fit-margin-right="0"
     fit-margin-bottom="0"
     inkscape:window-width="1918"
     inkscape:window-height="1038"
     inkscape:window-x="0"
     inkscape:window-y="20"
     inkscape:window-maximized="1" />
  <metadata
     id="metadata4669">
    <rdf:RDF>
      <cc:Work
         rdf:about="">
        <dc:format>image/svg+xml</dc:format>
        <dc:type
           rdf:resource="http://purl.org/dc/dcmitype/StillImage" />
        <dc:title></dc:title>
      </cc:Work>
    </rdf:RDF>
  </metadata>
  <g
     inkscape:label="Ebene 1"
     inkscape:groupmode="layer"
     id="layer1"
     transform="translate(51.869582,-127.4414)">
    <path
       inkscape:connector-curvature="0"
       id="path939"
       style="fill:#004e5e;fill-opacity:1;fill-rule:nonzero;stroke:none;stroke-width:0.35277775"
       d="m -38.454502,132.55347 c 0,-0.003 0,-0.004 0,-0.005 l -0.165453,-1.95016 c 0,-0.0166 -0.01093,-0.0303 -0.02611,-0.037 -0.01517,-0.006 -0.03281,-0.004 -0.04551,0.007 l -1.499306,1.25836 c -0.0014,0 -0.0025,0.001 -0.0039,0.004 -0.190147,0.20285 -0.289631,0.46602 -0.279753,0.74436 0.0095,0.27693 0.126647,0.5334 0.329142,0.72355 0.0829,0.0769 0.176389,0.14041 0.281164,0.18733 0.0014,0 0.0014,0.001 0.0014,0.001 0.106186,0.0399 0.217664,0.0621 0.330906,0.0674 0.573263,0.0208 1.055511,-0.42722 1.075972,-1.00048 z" />
    <path
       inkscape:connector-curvature="0"
       id="path941"
       style="fill:#004e5e;fill-opacity:1;fill-rule:nonzero;stroke:none;stroke-width:0.35277775"
       d="m -38.454502,132.55347 c 0,-0.003 0,-0.004 0,-0.005 l -0.165453,-1.95016 c 0,-0.0166 -0.01093,-0.0303 -0.02611,-0.037 0,0 0,0 -0.0014,0 l -1.119011,1.76777 c -0.0011,0.003 -0.0025,0.004 -0.0039,0.006 -0.13088,0.27552 -0.14605,0.58703 -0.0441,0.87525 0.0441,0.12241 0.107245,0.23565 0.187325,0.33478 0.03175,0.004 0.0635,0.007 0.09631,0.008 0.572205,0.0208 1.054452,-0.42722 1.076324,-0.99907 z" />
    <path
       inkscape:connector-curvature="0"
       id="path943"
       style="fill:#004e5e;fill-opacity:1;fill-rule:nonzero;stroke:none;stroke-width:0.35277775"
       d="m -45.75806,136.98542 -2.754489,6.97547 c -0.102305,0.25788 -0.445205,0.36372 -0.735894,0.24942 -0.291042,-0.1143 -0.446617,-0.41628 -0.344664,-0.67522 0.07303,-0.1845 -0.03704,-0.40358 -0.249414,-0.48648 -0.20955,-0.0825 -0.439561,0.001 -0.512586,0.18626 -0.121356,0.30445 -0.09913,0.64347 0.05927,0.95497 0.159808,0.31115 0.436739,0.55669 0.781402,0.69286 0.345723,0.13652 0.716492,0.14605 1.045986,0.0265 0.323498,-0.11712 0.569031,-0.34749 0.690387,-0.64629 h 0.0011 l 2.756253,-6.98676 z" />
    <path
       inkscape:connector-curvature="0"
       id="path945"
       style="fill:#004e5e;fill-opacity:1;fill-rule:nonzero;stroke:none;stroke-width:0.35277775"
       d="m -43.962421,133.43118 c -3.000022,-1.18498 -6.376105,0.11324 -7.907161,2.83633 0.373239,0.0314 1.207206,0.0427 1.609372,0.20109 1.08197,0.4258 1.679928,1.31586 1.768122,1.9939 l 0.0014,0.001 v -0.001 c 0.526344,-0.43392 1.60408,-0.65052 2.684286,-0.22331 1.080558,0.4258 1.684161,1.30528 1.772355,1.9819 l 0.0014,0.002 h 0.0028 c 0,0 1.544461,-0.6738 2.625019,-0.248 0.462844,0.18345 1.007181,0.67134 1.324328,0.94404 0.77013,-3.04835 -0.863936,-6.29778 -3.88195,-7.48841 z" />
    <path
       inkscape:connector-curvature="0"
       id="path947"
       style="fill:#004e5e;fill-opacity:1;fill-rule:nonzero;stroke:none;stroke-width:0.35277775"
       d="m -42.175249,130.46855 -0.149931,-1.7847 c -0.0014,-0.0219 -0.01658,-0.0427 -0.03739,-0.0508 -0.02046,-0.008 -0.0441,-0.006 -0.06209,0.01 l -1.372305,1.15076 c 0,0.001 -0.0028,0.003 -0.0042,0.006 -0.365125,0.38982 -0.344664,1.00577 0.04551,1.3709 0.07867,0.073 0.166864,0.13229 0.263172,0.17497 0,0.001 0.0014,0.001 0.0014,0.001 0.09913,0.0388 0.203906,0.0593 0.310092,0.0635 0.534458,0.0194 0.985308,-0.3997 1.005769,-0.93416 0,-0.003 0,-0.004 -0.0014,-0.007 z" />
    <path
       inkscape:connector-curvature="0"
       id="path949"
       style="fill:#004e5e;fill-opacity:1;fill-rule:nonzero;stroke:none;stroke-width:0.35277775"
       d="m -43.666088,143.91256 c 0,-0.002 0,-0.004 0,-0.005 l -0.165453,-1.95016 c 0,-0.0162 -0.01093,-0.03 -0.02611,-0.037 -0.01517,-0.006 -0.03316,-0.004 -0.04551,0.007 l -1.499306,1.258 c -0.0014,0 -0.0028,0.001 -0.0042,0.003 -0.190148,0.2039 -0.289278,0.46707 -0.279753,0.74542 0.0099,0.27693 0.127,0.5334 0.329494,0.72354 0.08255,0.0773 0.176389,0.14041 0.281164,0.18733 0.0014,0 0.0014,0 0.0014,10e-4 0.105833,0.0399 0.217664,0.0621 0.330552,0.066 0.573264,0.0222 1.055512,-0.42686 1.076325,-0.99907 z" />
    <path
       inkscape:connector-curvature="0"
       id="path951"
       style="fill:#004e5e;fill-opacity:1;fill-rule:nonzero;stroke:none;stroke-width:0.35277775"
       d="m -49.524315,141.02578 -0.151342,-1.7847 c 0,-0.0219 -0.01517,-0.0427 -0.03598,-0.0508 -0.02187,-0.008 -0.04551,-0.006 -0.0635,0.01 l -1.370895,1.15076 c -0.0014,10e-4 -0.0042,0.003 -0.0056,0.005 -0.365125,0.39017 -0.344664,1.00612 0.04692,1.37124 0.07726,0.073 0.165453,0.13229 0.261761,0.17498 0.0014,10e-4 0.0014,10e-4 0.0014,10e-4 0,0 0.0014,0 0.0014,0 0.09913,0.0385 0.202494,0.0593 0.30868,0.0635 0.534459,0.019 0.98672,-0.39969 1.00577,-0.93451 0,-0.002 0,-0.004 0,-0.007 z" />
    <path
       inkscape:connector-curvature="0"
       id="path961"
       style="fill:#004e5e;fill-opacity:1;fill-rule:nonzero;stroke:none;stroke-width:0.35277775"
       d="m -46.11366,129.2049 -0.498828,-1.71979 c -0.0053,-0.0219 -0.02469,-0.0385 -0.04692,-0.0427 -0.02187,-0.004 -0.0441,0.004 -0.05786,0.0219 l -1.119011,1.39735 c -0.0011,0.001 -0.0039,0.004 -0.0039,0.007 -0.282575,0.45473 -0.140758,1.0541 0.313972,1.33526 0.09102,0.0564 0.189089,0.0963 0.292453,0.11994 0,0 0.0011,0 0.0011,0.001 0.104775,0.018 0.212373,0.018 0.317148,0.001 0.527755,-0.0868 0.887236,-0.58561 0.801863,-1.11372 0,-0.004 -0.0014,-0.005 -0.0028,-0.008 z" />
  </g>
</svg>
