<?xml version="1.0" encoding="UTF-8" standalone="no"?>
<!-- Created with Inkscape (http://www.inkscape.org/) -->

<svg
   xmlns:dc="http://purl.org/dc/elements/1.1/"
   xmlns:cc="http://creativecommons.org/ns#"
   xmlns:rdf="http://www.w3.org/1999/02/22-rdf-syntax-ns#"
   xmlns:svg="http://www.w3.org/2000/svg"
   xmlns="http://www.w3.org/2000/svg"
   xmlns:sodipodi="http://sodipodi.sourceforge.net/DTD/sodipodi-0.dtd"
   xmlns:inkscape="http://www.inkscape.org/namespaces/inkscape"
   width="7.0844831mm"
   height="15.717304mm"
   viewBox="0 0 7.0844839 15.717306"
   version="1.1"
   id="svg4672"
   inkscape:version="0.92.3 (2405546, 2018-03-11)"
   sodipodi:docname="rain_norain.svg">
  <defs
     id="defs4666" />
  <sodipodi:namedview
     id="base"
     pagecolor="#ffffff"
     bordercolor="#666666"
     borderopacity="1.0"
     inkscape:pageopacity="0.0"
     inkscape:pageshadow="2"
     inkscape:zoom="3.959798"
     inkscape:cx="48.319249"
     inkscape:cy="-5.3783442"
     inkscape:document-units="mm"
     inkscape:current-layer="layer1"
     showgrid="false"
     fit-margin-top="0"
     fit-margin-left="0"
     fit-margin-right="0"
     fit-margin-bottom="0"
     inkscape:window-width="1918"
     inkscape:window-height="1038"
     inkscape:window-x="0"
     inkscape:window-y="20"
     inkscape:window-maximized="1" />
  <metadata
     id="metadata4669">
    <rdf:RDF>
      <cc:Work
         rdf:about="">
        <dc:format>image/svg+xml</dc:format>
        <dc:type
           rdf:resource="http://purl.org/dc/dcmitype/StillImage" />
        <dc:title></dc:title>
      </cc:Work>
    </rdf:RDF>
  </metadata>
  <g
     inkscape:label="Ebene 1"
     inkscape:groupmode="layer"
     id="layer1"
     transform="translate(45.589249,-127.3731)">
    <path
       inkscape:connector-curvature="0"
       id="path927"
       style="fill:#004e5e;fill-opacity:1;fill-rule:nonzero;stroke:none;stroke-width:0.35277775"
       d="m -41.20281,136.22114 -3.413478,-7.23759 c -0.125236,-0.26599 0.04127,-0.6103 0.343253,-0.75388 0.303036,-0.14182 0.650169,-0.0427 0.777169,0.22613 0.08961,0.19156 0.341842,0.26458 0.560917,0.16122 0.217664,-0.10195 0.321028,-0.34325 0.230011,-0.53481 -0.148872,-0.3168 -0.428625,-0.54822 -0.786694,-0.65158 -0.358423,-0.10337 -0.752475,-0.0663 -1.109486,0.10195 -0.358423,0.16933 -0.636764,0.4505 -0.784225,0.79375 -0.14605,0.33761 -0.14605,0.69603 -0.0014,1.00859 l -0.0011,0.003 3.420181,7.24429 z" />
    <path
       inkscape:connector-curvature="0"
       id="path929"
       style="fill:#004e5e;fill-opacity:1;fill-rule:nonzero;stroke:none;stroke-width:0.35277775"
       d="m -40.217502,132.70571 c 0,0 0.367947,0.81174 -0.527755,1.21673 0,0 -0.56515,0.30586 -0.951089,-0.54857 l -0.166511,0.0759 c 0,0 0.345722,0.71402 -0.43427,1.16593 -0.125236,0.44662 -0.03316,0.15699 -0.316794,0.14464 -0.855839,0.28681 -1.163109,-0.44379 -1.163109,-0.44379 l -0.166863,0.0758 c 0.385938,0.85302 -0.216253,1.07492 -0.216253,1.07492 -0.895703,0.40534 -1.262239,-0.4064 -1.262239,-0.4064 l -0.166864,0.0758 6.370814,7.20408 0.339019,0.74965 0.187325,-0.0854 0.187325,-0.084 -0.339019,-0.74965 -1.205795,-9.54158 -0.166511,0.0744 z" />
  </g>
</svg>
