<?xml version="1.0" encoding="UTF-8" standalone="no"?>
<!-- Created with Inkscape (http://www.inkscape.org/) -->

<svg
   xmlns:dc="http://purl.org/dc/elements/1.1/"
   xmlns:cc="http://creativecommons.org/ns#"
   xmlns:rdf="http://www.w3.org/1999/02/22-rdf-syntax-ns#"
   xmlns:svg="http://www.w3.org/2000/svg"
   xmlns="http://www.w3.org/2000/svg"
   xmlns:sodipodi="http://sodipodi.sourceforge.net/DTD/sodipodi-0.dtd"
   xmlns:inkscape="http://www.inkscape.org/namespaces/inkscape"
   width="12.633633mm"
   height="18.076384mm"
   viewBox="0 0 12.633634 18.076385"
   version="1.1"
   id="svg4672"
   inkscape:version="0.92.3 (2405546, 2018-03-11)"
   sodipodi:docname="rain_rain.svg">
  <defs
     id="defs4666" />
  <sodipodi:namedview
     id="base"
     pagecolor="#ffffff"
     bordercolor="#666666"
     borderopacity="1.0"
     inkscape:pageopacity="0.0"
     inkscape:pageshadow="2"
     inkscape:zoom="3.959798"
     inkscape:cx="86.334073"
     inkscape:cy="-0.64736977"
     inkscape:document-units="mm"
     inkscape:current-layer="layer1"
     showgrid="false"
     fit-margin-top="0"
     fit-margin-left="0"
     fit-margin-right="0"
     fit-margin-bottom="0"
     inkscape:window-width="1918"
     inkscape:window-height="1038"
     inkscape:window-x="0"
     inkscape:window-y="20"
     inkscape:window-maximized="1" />
  <metadata
     id="metadata4669">
    <rdf:RDF>
      <cc:Work
         rdf:about="">
        <dc:format>image/svg+xml</dc:format>
        <dc:type
           rdf:resource="http://purl.org/dc/dcmitype/StillImage" />
        <dc:title></dc:title>
      </cc:Work>
    </rdf:RDF>
  </metadata>
  <g
     inkscape:label="Ebene 1"
     inkscape:groupmode="layer"
     id="layer1"
     transform="translate(55.647338,-126.26575)">
    <path
       inkscape:connector-curvature="0"
       id="path953"
       style="fill:#004e5e;fill-opacity:1;fill-rule:nonzero;stroke:none;stroke-width:0.35277775"
       d="m -49.59226,135.6874 -0.598312,7.47572 c -0.02187,0.27587 -0.318205,0.47836 -0.631119,0.45332 -0.311503,-0.0247 -0.548217,-0.26847 -0.524933,-0.54434 0.01517,-0.19826 -0.154517,-0.37606 -0.381706,-0.39405 -0.224719,-0.018 -0.420158,0.12947 -0.436739,0.32808 -0.02646,0.32667 0.09349,0.64488 0.336198,0.89711 0.243769,0.25083 0.579966,0.40499 0.950736,0.43392 0.369358,0.0289 0.726369,-0.0688 1.006122,-0.27975 0.27693,-0.20673 0.444853,-0.49883 0.472722,-0.81986 h 0.0011 l 0.5969,-7.48665 z" />
    <path
       inkscape:connector-curvature="0"
       id="path955"
       style="fill:#004e5e;fill-opacity:1;fill-rule:nonzero;stroke:none;stroke-width:0.35277775"
       d="m -48.911752,131.76275 c -3.214864,-0.25647 -6.066014,1.97062 -6.735586,5.02144 0.366536,-0.0773 1.166989,-0.3115 1.598436,-0.27693 1.158875,0.0924 1.991078,0.76905 2.273653,1.39171 h 0.0014 v -0.001 c 0.376061,-0.56903 1.34373,-1.08973 2.502605,-0.99765 1.157464,0.0924 1.991078,0.75671 2.273653,1.37971 l 0.0014,10e-4 0.0028,-10e-4 c 0,0 1.281642,-1.09573 2.439106,-1.0033 0.494594,0.0399 1.158875,0.34855 1.54058,0.51682 -0.153097,-3.14079 -2.663817,-5.77286 -5.898083,-6.03039 z" />
    <path
       inkscape:connector-curvature="0"
       id="path957"
       style="fill:#004e5e;fill-opacity:1;fill-rule:nonzero;stroke:none;stroke-width:0.35277775"
       d="m -44.69888,128.60715 c -0.0014,-10e-4 -0.0014,-0.004 -0.0028,-0.006 l -0.726369,-1.81645 c -0.0053,-0.0148 -0.02046,-0.0261 -0.03704,-0.0275 -0.01517,-10e-4 -0.03175,0.006 -0.04127,0.0194 l -1.0668,1.64112 c 0,0.001 -0.0014,0.003 -0.0028,0.004 -0.122414,0.24941 -0.138995,0.53199 -0.04939,0.79375 0.08961,0.26317 0.275519,0.47413 0.524933,0.5969 0.101953,0.0494 0.210961,0.0825 0.32385,0.0963 0,0 0.0014,0.001 0.0014,0.001 0,0 0,0 0.0014,0 0.112889,0.008 0.225778,-0.003 0.336197,-0.0332 0.55245,-0.14605 0.883356,-0.71649 0.737306,-1.2693 z" />
    <path
       inkscape:connector-curvature="0"
       id="path959"
       style="fill:#004e5e;fill-opacity:1;fill-rule:nonzero;stroke:none;stroke-width:0.35277775"
       d="m -50.069216,127.96616 -0.66428,-1.66194 c -0.0081,-0.0219 -0.02752,-0.0356 -0.0508,-0.0384 -0.02222,-0.001 -0.0441,0.008 -0.05644,0.0275 l -0.975783,1.50072 c -0.0014,0.001 -0.0028,0.004 -0.0028,0.007 -0.235656,0.48119 -0.03563,1.06257 0.443794,1.29823 0.09631,0.0469 0.197203,0.0772 0.303036,0.091 0.0014,0 0.0014,0 0.0014,0.001 0.106186,0.007 0.212372,-0.004 0.314325,-0.0303 0.518231,-0.13794 0.826911,-0.66993 0.688975,-1.18781 0,-0.003 0,-0.004 -0.0014,-0.007 z" />
  </g>
</svg>
