<?xml version="1.0" encoding="UTF-8" standalone="no"?>
<!-- Created with Inkscape (http://www.inkscape.org/) -->

<svg
   xmlns:dc="http://purl.org/dc/elements/1.1/"
   xmlns:cc="http://creativecommons.org/ns#"
   xmlns:rdf="http://www.w3.org/1999/02/22-rdf-syntax-ns#"
   xmlns:svg="http://www.w3.org/2000/svg"
   xmlns="http://www.w3.org/2000/svg"
   xmlns:sodipodi="http://sodipodi.sourceforge.net/DTD/sodipodi-0.dtd"
   xmlns:inkscape="http://www.inkscape.org/namespaces/inkscape"
   width="14.083594mm"
   height="17.860851mm"
   viewBox="0 0 14.083595 17.860852"
   version="1.1"
   id="svg4672"
   inkscape:version="0.92.3 (2405546, 2018-03-11)"
   sodipodi:docname="rain_fuzzyraining.svg">
  <defs
     id="defs4666" />
  <sodipodi:namedview
     id="base"
     pagecolor="#ffffff"
     bordercolor="#666666"
     borderopacity="1.0"
     inkscape:pageopacity="0.0"
     inkscape:pageshadow="2"
     inkscape:zoom="1.979899"
     inkscape:cx="113.57909"
     inkscape:cy="-30.125471"
     inkscape:document-units="mm"
     inkscape:current-layer="layer1"
     showgrid="false"
     fit-margin-top="0"
     fit-margin-left="0"
     fit-margin-right="0"
     fit-margin-bottom="0"
     inkscape:window-width="1918"
     inkscape:window-height="1038"
     inkscape:window-x="0"
     inkscape:window-y="20"
     inkscape:window-maximized="1" />
  <metadata
     id="metadata4669">
    <rdf:RDF>
      <cc:Work
         rdf:about="">
        <dc:format>image/svg+xml</dc:format>
        <dc:type
           rdf:resource="http://purl.org/dc/dcmitype/StillImage" />
        <dc:title></dc:title>
      </cc:Work>
    </rdf:RDF>
  </metadata>
  <g
     inkscape:label="Ebene 1"
     inkscape:groupmode="layer"
     id="layer1"
     transform="translate(73.466354,-115.54538)">
    <path
       inkscape:connector-curvature="0"
       id="path911"
       style="fill:#348292;fill-opacity:1;fill-rule:nonzero;stroke:none;stroke-width:0.35277775"
       d="m -59.38276,120.56537 c 0,-0.001 0,-0.004 0,-0.004 l -0.164042,-1.9498 c -0.0014,-0.0166 -0.01235,-0.0317 -0.02752,-0.037 -0.01517,-0.006 -0.03281,-0.004 -0.04551,0.007 l -1.499305,1.25695 c -0.0014,10e-4 -0.0025,0.003 -0.0039,0.004 -0.189089,0.20285 -0.28822,0.46743 -0.279753,0.74436 0.0095,0.27834 0.126647,0.53446 0.329141,0.72461 0.0829,0.0773 0.1778,0.14076 0.281164,0.18768 0,0 0.0014,0 0.0014,0 0.107597,0.0413 0.217664,0.0631 0.331964,0.0674 0.572205,0.0222 1.054452,-0.42722 1.076325,-0.99907 z" />
    <path
       inkscape:connector-curvature="0"
       id="path915"
       style="fill:#348292;fill-opacity:1;fill-rule:nonzero;stroke:none;stroke-width:0.35277775"
       d="m -67.252526,117.35333 -0.912284,-1.77095 c -0.01235,-0.0219 -0.03457,-0.037 -0.06068,-0.037 -0.02469,0.001 -0.04833,0.0138 -0.05927,0.037 l -0.92322,1.7653 c 0,0.003 -0.0028,0.006 -0.0028,0.008 -0.20955,0.55668 0.07303,1.18075 0.629709,1.3903 0.110419,0.0427 0.227541,0.0649 0.344663,0.0688 0.0011,0 0.0011,0 0.0025,0 0,0 0,0 0.0014,0 0.118534,-0.003 0.234245,-0.0261 0.344664,-0.066 0.559506,-0.20673 0.84455,-0.82974 0.637822,-1.38783 -0.0011,-0.003 -0.0011,-0.005 -0.0025,-0.007 z" />
    <path
       inkscape:connector-curvature="0"
       id="path917"
       style="fill:#348292;fill-opacity:1;fill-rule:nonzero;stroke:none;stroke-width:0.35277775"
       d="m -66.945257,124.86361 -2.939344,7.44255 c -0.109009,0.27447 -0.474134,0.38877 -0.784225,0.266 -0.311503,-0.12241 -0.476956,-0.44485 -0.367948,-0.72073 0.07867,-0.19685 -0.03986,-0.42968 -0.265994,-0.51928 -0.223308,-0.0882 -0.4699,10e-4 -0.547158,0.19826 -0.128059,0.32526 -0.105834,0.68756 0.0635,1.01988 0.170744,0.33196 0.465666,0.59372 0.833614,0.73871 0.367947,0.14605 0.763411,0.15558 1.11513,0.0289 0.347133,-0.12559 0.607483,-0.37077 0.736953,-0.69038 h 0.0014 l 2.940764,-7.45244 z" />
    <path
       inkscape:connector-curvature="0"
       id="path919"
       style="fill:#348292;fill-opacity:1;fill-rule:nonzero;stroke:none;stroke-width:0.35277775"
       d="m -65.030026,121.07266 c -3.199695,-1.26365 -6.80332,0.121 -8.436328,3.02472 0.398286,0.0346 1.288697,0.0455 1.718381,0.21484 1.153583,0.45473 1.791758,1.40441 1.885244,2.12901 h 0.0014 l 0.0014,-0.001 c 0.560916,-0.4632 1.710266,-0.69321 2.863497,-0.23848 1.152172,0.45473 1.795639,1.39171 1.890889,2.11525 l 0.0011,0.003 0.0014,-0.001 c 0,0 1.649589,-0.7179 2.801761,-0.26317 0.493184,0.19403 1.074914,0.71508 1.412522,1.00577 0.822678,-3.25226 -0.92075,-6.71936 -4.141258,-7.9883 z" />
    <path
       inkscape:connector-curvature="0"
       id="path931"
       style="fill:#348292;fill-opacity:1;fill-rule:nonzero;stroke:none;stroke-width:0.35277775"
       d="m -63.102096,118.48045 -0.150283,-1.78329 c -0.0011,-0.0233 -0.01623,-0.0427 -0.03704,-0.0508 -0.02187,-0.008 -0.04551,-0.006 -0.0635,0.01 l -1.370894,1.15077 c -0.0014,0.001 -0.0042,0.003 -0.0056,0.006 -0.365125,0.38982 -0.344664,1.00577 0.04692,1.37089 0.07726,0.073 0.165452,0.13088 0.261761,0.17498 0.0014,0 0.0014,0 0.0014,0.001 0,0 0.0014,0 0.0014,0 0.09913,0.0388 0.202494,0.0593 0.30868,0.0635 0.534459,0.0194 0.98672,-0.39969 1.00577,-0.9345 0,-0.002 0,-0.005 0,-0.007 z" />
  </g>
</svg>
