<?xml version="1.0" encoding="UTF-8" standalone="no"?>
<!-- Created with Inkscape (http://www.inkscape.org/) -->

<svg
   xmlns:dc="http://purl.org/dc/elements/1.1/"
   xmlns:cc="http://creativecommons.org/ns#"
   xmlns:rdf="http://www.w3.org/1999/02/22-rdf-syntax-ns#"
   xmlns:svg="http://www.w3.org/2000/svg"
   xmlns="http://www.w3.org/2000/svg"
   xmlns:sodipodi="http://sodipodi.sourceforge.net/DTD/sodipodi-0.dtd"
   xmlns:inkscape="http://www.inkscape.org/namespaces/inkscape"
   width="7.8176341mm"
   height="10.022607mm"
   viewBox="0 0 7.8176341 10.022607"
   version="1.1"
   id="svg1047"
   inkscape:version="0.92.3 (d244b95, 2018-08-02)"
   sodipodi:docname="step1.svg">
  <defs
     id="defs1041" />
  <sodipodi:namedview
     id="base"
     pagecolor="#ffffff"
     bordercolor="#666666"
     borderopacity="1.0"
     inkscape:pageopacity="0.0"
     inkscape:pageshadow="2"
     inkscape:zoom="11.2"
     inkscape:cx="14.122839"
     inkscape:cy="17.475937"
     inkscape:document-units="mm"
     inkscape:current-layer="g3126"
     showgrid="false"
     inkscape:window-width="1920"
     inkscape:window-height="1016"
     inkscape:window-x="0"
     inkscape:window-y="27"
     inkscape:window-maximized="1"
     fit-margin-top="0"
     fit-margin-left="0"
     fit-margin-right="0"
     fit-margin-bottom="0" />
  <metadata
     id="metadata1044">
    <rdf:RDF>
      <cc:Work
         rdf:about="">
        <dc:format>image/svg+xml</dc:format>
        <dc:type
           rdf:resource="http://purl.org/dc/dcmitype/StillImage" />
        <dc:title></dc:title>
      </cc:Work>
    </rdf:RDF>
  </metadata>
  <g
     inkscape:label="Ebene 1"
     inkscape:groupmode="layer"
     id="layer1"
     transform="translate(-0.00118181,-288.0787)">
    <g
       transform="translate(-238.65772,217.9384)"
       id="g3972"
       inkscape:export-filename="C:\Users\Pecca\Documents\Meteorologie\wolken-icons-gleich\Stufe3_starkBewölkt.png"
       inkscape:export-xdpi="300"
       inkscape:export-ydpi="300">
      <g
         id="g4938"
         transform="translate(-1.2399256,-0.15386168)">
        <g
           inkscape:export-ydpi="300"
           inkscape:export-xdpi="300"
           inkscape:export-filename="C:\Users\Pecca\Documents\Meteorologie\wolken-icons-gleich\Stufe2_eherSonnig.png"
           id="g3983"
           transform="translate(-7.1203827,0.05937064)">
          <g
             transform="translate(-8.5526275,0.28348541)"
             id="g3993"
             style="stroke-width:0.1;stroke-miterlimit:4;stroke-dasharray:none"
             inkscape:export-filename="C:\Users\Pecca\Documents\Meteorologie\wolken-icons-gleich\Stufe3_klarerHimmel.png"
             inkscape:export-xdpi="300"
             inkscape:export-ydpi="300">
            <g
               transform="translate(16.971619,-10.640182)"
               id="g4015"
               inkscape:export-filename="C:\Users\Pecca\Documents\Meteorologie\wolken-icons-gleich\Stufe2_eherBewölkt.png"
               inkscape:export-xdpi="300"
               inkscape:export-ydpi="300">
              <g
                 transform="translate(-16.837983,0.08303784)"
                 id="g4033"
                 inkscape:export-filename="C:\Users\Pecca\Documents\Meteorologie\wolken-icons-gleich\Stufe3_leichtBedeckt.png"
                 inkscape:export-xdpi="300"
                 inkscape:export-ydpi="300">
                <g
                   transform="translate(143.185,17.870419)"
                   id="g3318"
                   inkscape:export-xdpi="300"
                   inkscape:export-ydpi="300">
                  <g
                     transform="matrix(1.047524,-0.01184562,0.01184562,1.047524,1.6127057,-30.807419)"
                     id="g3126">
                    <g
                       aria-label="?"
                       transform="matrix(0.14454519,0,0,0.16153528,46.208044,3.8455229)"
                       style="font-style:normal;font-weight:normal;font-size:40px;line-height:1.25;font-family:sans-serif;letter-spacing:0px;word-spacing:0px;fill:#85cbcf;fill-opacity:1;stroke:none"
                       id="flowRoot13633">
                      <path
                         d="m 426.84961,588.02148 h 3.96484 v 4.96094 h -3.96484 z m 3.84766,-2.87109 h -3.73047 v -3.00781 q 0,-1.97266 0.54687,-3.24219 0.54688,-1.26953 2.30469,-2.94922 l 1.75781,-1.73828 q 1.11328,-1.03516 1.60156,-1.95312 0.50782,-0.91797 0.50782,-1.875 0,-1.73829 -1.28907,-2.8125 -1.26953,-1.07422 -3.3789,-1.07422 -1.54297,0 -3.30078,0.68359 -1.73828,0.68359 -3.63282,1.99219 v -3.67188 q 1.83594,-1.11328 3.71094,-1.66015 1.89453,-0.54688 3.90625,-0.54688 3.59375,0 5.76172,1.89453 2.1875,1.89453 2.1875,5 0,1.48438 -0.70312,2.83203 -0.70313,1.32813 -2.46094,3.00782 l -1.71875,1.67968 q -0.91797,0.91797 -1.3086,1.44532 -0.37109,0.50781 -0.52734,0.99609 -0.11719,0.41016 -0.17578,0.99609 -0.0586,0.58594 -0.0586,1.60157 z"
                         style=""
                         id="path5704" />
                    </g>
                    <flowRoot
                       xml:space="preserve"
                       id="flowRoot13641"
                       style="font-style:normal;font-weight:normal;font-size:40px;line-height:1.25;font-family:sans-serif;letter-spacing:0px;word-spacing:0px;fill:#85cbcf;fill-opacity:1;stroke:none"
                       transform="matrix(0.14454519,0,0,0.16153528,46.750117,-3.1731783)"><flowRegion
                         id="flowRegion13637"
                         style="fill:#85cbcf;fill-opacity:1"><rect
                           id="rect13635"
                           width="90.913727"
                           height="141.42136"
                           x="419.21332"
                           y="557.59186"
                           style="fill:#85cbcf;fill-opacity:1" /></flowRegion><flowPara
                         id="flowPara13639">.</flowPara></flowRoot>                    <path
                       id="path13643"
                       d="m 108.29458,92.011312 c -1.87964,-0.02266 -3.45249,1.243766 -3.72507,2.868314 0.21004,-0.05346 0.66676,-0.204174 0.91915,-0.200796 0.67716,0.0099 1.18738,0.334951 1.37505,0.652093 l 5.2e-4,2.19e-4 2.5e-4,-4.57e-4 c 0.19741,-0.312373 0.73999,-0.618743 1.4169,-0.610276 0.67716,0.0099 1.18727,0.328312 1.37516,0.645255 l 10e-4,9.74e-4 0.001,-9.74e-4 c 0,0 0.70346,-0.61914 1.38037,-0.610693 0.28962,0.004 0.68738,0.142105 0.91622,0.21749 -0.20914,-1.643349 -1.77053,-2.937677 -3.66102,-2.961388 z"
                       style="fill:#85cbcf;fill-opacity:1;stroke-width:0.02509297"
                       inkscape:connector-curvature="0" />
                  </g>
                </g>
              </g>
            </g>
          </g>
        </g>
      </g>
    </g>
  </g>
</svg>
