<?xml version="1.0" encoding="UTF-8" standalone="no"?>
<!-- Created with Inkscape (http://www.inkscape.org/) -->

<svg
   xmlns:dc="http://purl.org/dc/elements/1.1/"
   xmlns:cc="http://creativecommons.org/ns#"
   xmlns:rdf="http://www.w3.org/1999/02/22-rdf-syntax-ns#"
   xmlns:svg="http://www.w3.org/2000/svg"
   xmlns="http://www.w3.org/2000/svg"
   xmlns:sodipodi="http://sodipodi.sourceforge.net/DTD/sodipodi-0.dtd"
   xmlns:inkscape="http://www.inkscape.org/namespaces/inkscape"
   width="7.8176341mm"
   height="10.022607mm"
   viewBox="0 0 7.8176341 10.022607"
   version="1.1"
   id="svg1047"
   inkscape:version="0.92.3 (d244b95, 2018-08-02)"
   sodipodi:docname="step3_medium_rain.svg">
  <defs
     id="defs1041" />
  <sodipodi:namedview
     id="base"
     pagecolor="#ffffff"
     bordercolor="#666666"
     borderopacity="1.0"
     inkscape:pageopacity="0.0"
     inkscape:pageshadow="2"
     inkscape:zoom="11.2"
     inkscape:cx="13.457579"
     inkscape:cy="11.963802"
     inkscape:document-units="mm"
     inkscape:current-layer="g3157"
     showgrid="false"
     inkscape:window-width="1920"
     inkscape:window-height="1016"
     inkscape:window-x="0"
     inkscape:window-y="27"
     inkscape:window-maximized="1"
     fit-margin-top="0"
     fit-margin-left="0"
     fit-margin-right="0"
     fit-margin-bottom="0" />
  <metadata
     id="metadata1044">
    <rdf:RDF>
      <cc:Work
         rdf:about="">
        <dc:format>image/svg+xml</dc:format>
        <dc:type
           rdf:resource="http://purl.org/dc/dcmitype/StillImage" />
        <dc:title></dc:title>
      </cc:Work>
    </rdf:RDF>
  </metadata>
  <g
     inkscape:label="Ebene 1"
     inkscape:groupmode="layer"
     id="layer1"
     transform="translate(2.0995652,-288.51016)">
    <g
       transform="translate(-238.65772,217.9384)"
       id="g3972"
       inkscape:export-filename="C:\Users\Pecca\Documents\Meteorologie\wolken-icons-gleich\Stufe3_starkBewölkt.png"
       inkscape:export-xdpi="300"
       inkscape:export-ydpi="300">
      <g
         id="g4938"
         transform="translate(-1.2399256,-0.15386168)">
        <g
           inkscape:export-ydpi="300"
           inkscape:export-xdpi="300"
           inkscape:export-filename="C:\Users\Pecca\Documents\Meteorologie\wolken-icons-gleich\Stufe2_eherSonnig.png"
           id="g3983"
           transform="translate(-7.1203827,0.05937064)">
          <g
             transform="translate(-8.5526275,0.28348541)"
             id="g3993"
             style="stroke-width:0.1;stroke-miterlimit:4;stroke-dasharray:none"
             inkscape:export-filename="C:\Users\Pecca\Documents\Meteorologie\wolken-icons-gleich\Stufe3_klarerHimmel.png"
             inkscape:export-xdpi="300"
             inkscape:export-ydpi="300">
            <g
               transform="translate(16.971619,-10.640182)"
               id="g4015"
               inkscape:export-filename="C:\Users\Pecca\Documents\Meteorologie\wolken-icons-gleich\Stufe2_eherBewölkt.png"
               inkscape:export-xdpi="300"
               inkscape:export-ydpi="300">
              <g
                 transform="translate(-16.837983,0.08303784)"
                 id="g4033"
                 inkscape:export-filename="C:\Users\Pecca\Documents\Meteorologie\wolken-icons-gleich\Stufe3_leichtBedeckt.png"
                 inkscape:export-xdpi="300"
                 inkscape:export-ydpi="300">
                <g
                   transform="translate(143.185,17.870419)"
                   id="g3318"
                   inkscape:export-xdpi="300"
                   inkscape:export-ydpi="300">
                  <g
                     transform="matrix(1.047524,-0.01184562,0.01184562,1.047524,1.6127057,-30.807419)"
                     id="g3126">
                    <g
                       transform="matrix(0.95451002,0.0107938,-0.0107938,0.95451002,-139.3275,0.53370221)"
                       id="g4060">
                      <g
                         transform="translate(0.11693643,0.03340869)"
                         id="g3903"
                         inkscape:export-filename="C:\Users\Pecca\Documents\Meteorologie\wolken-icons-gleich\Stufe1.png"
                         inkscape:export-xdpi="300"
                         inkscape:export-ydpi="300">
                        <g
                           aria-label="?"
                           transform="matrix(0.13501414,0,0,0.15088394,201.19194,9.5536955)"
                           style="font-style:normal;font-weight:normal;font-size:40px;line-height:1.25;font-family:sans-serif;letter-spacing:0px;word-spacing:0px;fill:#85cbcf;fill-opacity:1;stroke:none"
                           id="flowRoot3455" />
                        <g
                           inkscape:export-ydpi="300"
                           inkscape:export-xdpi="300"
                           style="fill:#85cbcf;fill-opacity:1;stroke:#85cbcf;stroke-width:0.43932191;stroke-miterlimit:4;stroke-dasharray:none;stroke-opacity:1"
                           transform="matrix(0.22307105,1.5408189e-5,-1.5408189e-5,0.22307105,255.54291,90.95863)"
                           id="g3587">
                          <g
                             transform="matrix(4.4828766,-3.0965281e-4,3.0965281e-4,4.4828766,-467.33262,-327.40486)"
                             id="g3339"
                             inkscape:export-xdpi="300"
                             inkscape:export-ydpi="300">
                            <g
                               transform="translate(-1.0356692,-3.9756342)"
                               id="g3157">
                              <g
                                 id="g13685"
                                 transform="matrix(0.02455708,0.00896936,-0.00896936,0.02455708,105.26802,79.63173)"
                                 style="fill:#004e5e;fill-opacity:1;stroke:none">
                                <path
                                   inkscape:connector-curvature="0"
                                   style="fill:#004e5e;fill-opacity:1;stroke:none"
                                   d="m 131.443,87.509 -0.052,165.505 c 0,6.099 -6.169,11.061 -13.074,11.061 -6.913,0 -12.531,-4.935 -12.531,-11.061 0,-4.393 -4.052,-7.981 -9.057,-7.981 -4.988,0 -9.04,3.588 -9.04,7.981 0,7.228 3.177,14.019 8.97,19.129 5.793,5.084 13.476,7.885 21.658,7.885 8.182,0 15.865,-2.8 21.658,-7.911 5.723,-5.04 8.891,-11.744 8.935,-18.867 l 0.035,-0.018 V 87.509 Z"
                                   id="path13681" />
                                <path
                                   inkscape:connector-curvature="0"
                                   style="fill:#004e5e;fill-opacity:1;stroke:none"
                                   d="M 139.529,0 C 68.358,0 9.553,53.984 0.18,122.267 c 7.92,-2.363 25.124,-8.908 34.68,-8.908 25.64,0 45.146,13.415 52.435,26.629 l 0.026,0.009 0.009,-0.026 c 7.289,-13.196 27.653,-26.34 53.284,-26.34 25.64,0 45.137,13.144 52.435,26.34 l 0.053,0.044 0.035,-0.035 c 0,0 26.27,-26.34 51.901,-26.34 10.965,0 26.104,5.609 34.811,8.646 C 270.976,53.468 211.111,0 139.529,0 Z"
                                   id="path13683" />
                              </g>
                              <path
                                 inkscape:connector-curvature="0"
                                 style="fill:#004e5e;fill-opacity:1;stroke-width:0.00923879;stroke:none"
                                 d="m 111.25553,80.112649 c 1e-5,-0.0012 -1.3e-4,-0.0017 -4.5e-4,-0.0023 l -0.12386,-1.122146 c 7.6e-4,-0.01064 -0.005,-0.01872 -0.0162,-0.02191 -0.009,-0.0031 -0.0212,-0.0037 -0.0278,0.0031 l -0.84609,0.747258 c -5.2e-4,4.65e-4 -0.001,0.0012 -0.002,0.0018 -0.10635,0.119466 -0.15994,0.273522 -0.15247,0.432646 0.009,0.159611 0.0806,0.306399 0.20015,0.412716 0.0481,0.0458 0.10485,0.07744 0.16475,0.103866 2.6e-4,7.1e-5 4.8e-4,1.56e-4 5.3e-4,2.33e-4 2.5e-4,7e-5 4.9e-4,2.02e-4 5e-4,2.48e-4 0.0617,0.02152 0.12623,0.03338 0.19259,0.03122 0.33022,0.0041 0.60205,-0.262219 0.60596,-0.592272 z"
                                 id="path13687" />
                              <path
                                 inkscape:connector-curvature="0"
                                 style="fill:#004e5e;fill-opacity:1;stroke-width:0.01268588;stroke:none"
                                 d="m 108.57009,78.928286 -0.11322,-1.02663 c -0.002,-0.01149 -0.0102,-0.02506 -0.0244,-0.02898 -0.009,-0.0037 -0.0262,-0.0029 -0.0346,0.0078 l -0.77422,0.683737 c -5e-4,4.5e-4 -0.001,0.0012 -0.002,0.0018 -0.205,0.230899 -0.1846,0.585184 0.047,0.790374 0.0461,0.03978 0.0971,0.07527 0.15425,0.09725 3.4e-4,1.37e-4 5.2e-4,2.74e-4 4.9e-4,3.55e-4 3.3e-4,1.57e-4 5.3e-4,2.54e-4 5e-4,3.34e-4 0.0579,0.02044 0.1184,0.03132 0.1792,0.03229 0.3089,0.0034 0.56274,-0.244617 0.56615,-0.553463 -6e-5,-0.0016 -2e-5,-0.0022 1.1e-4,-0.0044 z"
                                 id="path13689" />
                            </g>
                          </g>
                        </g>
                      </g>
                    </g>
                  </g>
                </g>
              </g>
            </g>
          </g>
        </g>
      </g>
    </g>
  </g>
</svg>
