<?xml version="1.0" encoding="UTF-8" standalone="no"?>
<!-- Created with Inkscape (http://www.inkscape.org/) -->

<svg
   xmlns:dc="http://purl.org/dc/elements/1.1/"
   xmlns:cc="http://creativecommons.org/ns#"
   xmlns:rdf="http://www.w3.org/1999/02/22-rdf-syntax-ns#"
   xmlns:svg="http://www.w3.org/2000/svg"
   xmlns="http://www.w3.org/2000/svg"
   xmlns:sodipodi="http://sodipodi.sourceforge.net/DTD/sodipodi-0.dtd"
   xmlns:inkscape="http://www.inkscape.org/namespaces/inkscape"
   width="7.8176341mm"
   height="10.022607mm"
   viewBox="0 0 7.8176341 10.022607"
   version="1.1"
   id="svg1047"
   inkscape:version="0.92.3 (d244b95, 2018-08-02)"
   sodipodi:docname="step3_light_rain.svg">
  <defs
     id="defs1041" />
  <sodipodi:namedview
     id="base"
     pagecolor="#ffffff"
     bordercolor="#666666"
     borderopacity="1.0"
     inkscape:pageopacity="0.0"
     inkscape:pageshadow="2"
     inkscape:zoom="11.2"
     inkscape:cx="-0.82813575"
     inkscape:cy="11.963802"
     inkscape:document-units="mm"
     inkscape:current-layer="g3157"
     showgrid="false"
     inkscape:window-width="1920"
     inkscape:window-height="1016"
     inkscape:window-x="0"
     inkscape:window-y="27"
     inkscape:window-maximized="1"
     fit-margin-top="0"
     fit-margin-left="0"
     fit-margin-right="0"
     fit-margin-bottom="0" />
  <metadata
     id="metadata1044">
    <rdf:RDF>
      <cc:Work
         rdf:about="">
        <dc:format>image/svg+xml</dc:format>
        <dc:type
           rdf:resource="http://purl.org/dc/dcmitype/StillImage" />
        <dc:title></dc:title>
      </cc:Work>
    </rdf:RDF>
  </metadata>
  <g
     inkscape:label="Ebene 1"
     inkscape:groupmode="layer"
     id="layer1"
     transform="translate(2.0995652,-288.51016)">
    <g
       transform="translate(-238.65772,217.9384)"
       id="g3972"
       inkscape:export-filename="C:\Users\Pecca\Documents\Meteorologie\wolken-icons-gleich\Stufe3_starkBewölkt.png"
       inkscape:export-xdpi="300"
       inkscape:export-ydpi="300">
      <g
         id="g4938"
         transform="translate(-1.2399256,-0.15386168)">
        <g
           inkscape:export-ydpi="300"
           inkscape:export-xdpi="300"
           inkscape:export-filename="C:\Users\Pecca\Documents\Meteorologie\wolken-icons-gleich\Stufe2_eherSonnig.png"
           id="g3983"
           transform="translate(-7.1203827,0.05937064)">
          <g
             transform="translate(-8.5526275,0.28348541)"
             id="g3993"
             style="stroke-width:0.1;stroke-miterlimit:4;stroke-dasharray:none"
             inkscape:export-filename="C:\Users\Pecca\Documents\Meteorologie\wolken-icons-gleich\Stufe3_klarerHimmel.png"
             inkscape:export-xdpi="300"
             inkscape:export-ydpi="300">
            <g
               transform="translate(16.971619,-10.640182)"
               id="g4015"
               inkscape:export-filename="C:\Users\Pecca\Documents\Meteorologie\wolken-icons-gleich\Stufe2_eherBewölkt.png"
               inkscape:export-xdpi="300"
               inkscape:export-ydpi="300">
              <g
                 transform="translate(-16.837983,0.08303784)"
                 id="g4033"
                 inkscape:export-filename="C:\Users\Pecca\Documents\Meteorologie\wolken-icons-gleich\Stufe3_leichtBedeckt.png"
                 inkscape:export-xdpi="300"
                 inkscape:export-ydpi="300">
                <g
                   transform="translate(143.185,17.870419)"
                   id="g3318"
                   inkscape:export-xdpi="300"
                   inkscape:export-ydpi="300">
                  <g
                     transform="matrix(1.047524,-0.01184562,0.01184562,1.047524,1.6127057,-30.807419)"
                     id="g3126">
                    <g
                       transform="matrix(0.95451002,0.0107938,-0.0107938,0.95451002,-139.3275,0.53370221)"
                       id="g4060">
                      <g
                         transform="translate(0.11693643,0.03340869)"
                         id="g3903"
                         inkscape:export-filename="C:\Users\Pecca\Documents\Meteorologie\wolken-icons-gleich\Stufe1.png"
                         inkscape:export-xdpi="300"
                         inkscape:export-ydpi="300">
                        <g
                           aria-label="?"
                           transform="matrix(0.13501414,0,0,0.15088394,201.19194,9.5536955)"
                           style="font-style:normal;font-weight:normal;font-size:40px;line-height:1.25;font-family:sans-serif;letter-spacing:0px;word-spacing:0px;fill:#85cbcf;fill-opacity:1;stroke:none"
                           id="flowRoot3455" />
                        <g
                           inkscape:export-ydpi="300"
                           inkscape:export-xdpi="300"
                           style="fill:#85cbcf;fill-opacity:1;stroke:#85cbcf;stroke-width:0.43932191;stroke-miterlimit:4;stroke-dasharray:none;stroke-opacity:1"
                           transform="matrix(0.22307105,1.5408189e-5,-1.5408189e-5,0.22307105,255.54291,90.95863)"
                           id="g3587">
                          <g
                             transform="matrix(4.4828766,-3.0965281e-4,3.0965281e-4,4.4828766,-467.33262,-327.40486)"
                             id="g3339"
                             inkscape:export-xdpi="300"
                             inkscape:export-ydpi="300">
                            <g
                               transform="translate(-1.0356692,-3.9756342)"
                               id="g3157">
                              <g
                                 transform="rotate(-7.4457003,187.85328,49.256914)"
                                 id="g7328">
                                <path
                                   id="path13673"
                                   d="m 149.84586,131.82762 -2.60918,-7.56437 c -0.0962,-0.27872 0.10736,-0.60282 0.42295,-0.71178 0.31591,-0.10908 0.65053,0.0279 0.74719,0.30775 0.0693,0.20076 0.31111,0.30079 0.53984,0.22182 0.22795,-0.0787 0.35651,-0.30662 0.28719,-0.50738 -0.11405,-0.33031 -0.36639,-0.59053 -0.71176,-0.73264 -0.34496,-0.14098 -0.74028,-0.14769 -1.1142,-0.0186 -0.37391,0.1291 -0.68084,0.3783 -0.86492,0.70328 -0.18202,0.32063 -0.22101,0.67699 -0.11062,1.00321 l -0.001,0.002 2.615,7.5735 z"
                                   style="fill:#004e5e;fill-opacity:1;stroke-width:0.04834725;stroke:none"
                                   inkscape:connector-curvature="0"
                                   transform="matrix(0.54065649,0.07840962,-0.07840962,0.54065649,33.653964,-9.8562992)" />
                                <path
                                   sodipodi:nodetypes="ccccccccccccccccccc"
                                   style="fill:#004e5e;fill-opacity:1;stroke:none;stroke-width:0.21215397"
                                   inkscape:connector-curvature="0"
                                   d="m 151.20639,128.43948 c 0,0 0.27729,0.84725 -0.65707,1.15304 0,0 -0.59427,0.24269 -0.8858,-0.64811 l -0.1736,0.0568 c 0,0 0.26581,0.74675 -0.55897,1.11245 -0.17207,0.4299 -0.0497,0.15197 -0.33003,0.1084 -0.88121,0.19263 -1.10852,-0.56674 -1.10852,-0.56674 l -0.1738,0.0569 c 0.29153,0.89081 -0.33105,1.04634 -0.33105,1.04634 -0.93435,0.30578 -1.21163,-0.54148 -1.21163,-0.54148 l -0.17381,0.0569 5.55236,7.85239 0.25597,0.78212 0.19558,-0.064 0.19558,-0.064 -0.25596,-0.78213 -0.16445,-9.6159 -0.1736,0.0568 z"
                                   id="path13675"
                                   transform="matrix(0.54065649,0.07840962,-0.07840962,0.54065649,33.653964,-9.8562992)" />
                                <path
                                   inkscape:connector-curvature="0"
                                   style="fill:#004e5e;fill-opacity:1;stroke-width:0.0105552;stroke:none"
                                   d="m 106.4905,69.01696 -0.27834,-0.813099 c -0.002,-0.0099 -0.0157,-0.02027 -0.0246,-0.02027 -0.009,-0.0014 -0.0203,0.002 -0.0296,0.0099 l -0.50452,0.695718 c -5e-4,4.37e-4 -0.001,0.0014 -0.001,0.002 -0.12478,0.224943 -0.0442,0.508696 0.18161,0.633271 0.0442,0.02465 0.0927,0.04412 0.14282,0.05108 2.9e-4,6e-5 4.5e-4,1.2e-4 4.5e-4,1.99e-4 2.7e-4,4e-5 4.8e-4,1.19e-4 4.8e-4,1.59e-4 0.0505,0.004 0.10176,0.004 0.15116,-0.004 0.25132,-0.05307 0.41234,-0.300905 0.35932,-0.552242 -2.5e-4,-0.0014 -4.5e-4,-0.002 -4.5e-4,-0.002 z"
                                   id="path13679" />
                              </g>
                            </g>
                          </g>
                        </g>
                      </g>
                    </g>
                  </g>
                </g>
              </g>
            </g>
          </g>
        </g>
      </g>
    </g>
  </g>
</svg>
