<?xml version="1.0" encoding="UTF-8" standalone="no"?>
<!-- Created with Inkscape (http://www.inkscape.org/) -->

<svg
   xmlns:dc="http://purl.org/dc/elements/1.1/"
   xmlns:cc="http://creativecommons.org/ns#"
   xmlns:rdf="http://www.w3.org/1999/02/22-rdf-syntax-ns#"
   xmlns:svg="http://www.w3.org/2000/svg"
   xmlns="http://www.w3.org/2000/svg"
   xmlns:sodipodi="http://sodipodi.sourceforge.net/DTD/sodipodi-0.dtd"
   xmlns:inkscape="http://www.inkscape.org/namespaces/inkscape"
   width="7.8176351mm"
   height="7.8844504mm"
   viewBox="0 0 7.8176351 7.8844504"
   version="1.1"
   id="svg9020"
   inkscape:version="0.92.3 (2405546, 2018-03-11)"
   sodipodi:docname="step1_v2.svg">
  <defs
     id="defs9014" />
  <sodipodi:namedview
     id="base"
     pagecolor="#ffffff"
     bordercolor="#666666"
     borderopacity="1.0"
     inkscape:pageopacity="0.0"
     inkscape:pageshadow="2"
     inkscape:zoom="7.9195959"
     inkscape:cx="-9.6450291"
     inkscape:cy="1.1019541"
     inkscape:document-units="mm"
     inkscape:current-layer="layer1"
     showgrid="false"
     fit-margin-top="0"
     fit-margin-left="0"
     fit-margin-right="0"
     fit-margin-bottom="0"
     inkscape:snap-global="false"
     inkscape:window-width="1920"
     inkscape:window-height="986"
     inkscape:window-x="-11"
     inkscape:window-y="-11"
     inkscape:window-maximized="1" />
  <metadata
     id="metadata9017">
    <rdf:RDF>
      <cc:Work
         rdf:about="">
        <dc:format>image/svg+xml</dc:format>
        <dc:type
           rdf:resource="http://purl.org/dc/dcmitype/StillImage" />
        <dc:title></dc:title>
      </cc:Work>
    </rdf:RDF>
  </metadata>
  <g
     inkscape:label="Ebene 1"
     inkscape:groupmode="layer"
     id="layer1"
     transform="translate(-42.204278,-127.5042)">
    <g
       transform="matrix(0.00523159,0.41212834,-0.41212834,0.00523159,87.926213,90.236727)"
       id="g9576">
      <path
         inkscape:connector-curvature="0"
         id="path4613"
         d="m 89.274857,102.55036 c -0.33929,1.25554 0.43111,2.55555 1.70279,2.89942 a 0.35506024,0.35505243 15.131852 1 0 0.18452,-0.6856 c -0.90952,-0.24601 -1.43967,-1.15208 -1.20266,-2.02871 0.23749,-0.8764 1.1517,-1.39199 2.06121,-1.14604 0.90948,0.24601 1.43965,1.15206 1.20263,2.02864 l -1.3761,5.08875 a 0.35506024,0.35505243 15.131852 1 0 0.68542,0.18539 l 1.37607,-5.08875 a 0.35506024,0.35505243 15.131852 0 0 0.009,-0.0391 c 0.31289,-1.24306 -0.45309,-2.51947 -1.71128,-2.85973 -1.27162,-0.34404 -2.59244,0.39066 -2.93196,1.64605 z"
         style="fill:#85cbcf;fill-opacity:1;stroke-width:0.67089188" />
      <path
         sodipodi:nodetypes="cccccccccccc"
         inkscape:connector-curvature="0"
         id="path14315-8-0"
         d="m 91.529137,96.48411 c -0.46086,1.59958 0.49603,3.279172 2.12127,3.74743 0.39917,0.11637 0.57159,-0.483808 0.17148,-0.597018 -1.30999,-0.37741 -2.06222,-1.709062 -1.69642,-2.978642 0.36577,-1.26955 1.71123,-1.996801 3.0212,-1.619411 1.30994,0.377451 2.06221,1.709091 1.69642,2.978641 l -3.11943,10.84597 c -0.12117,0.40145 0.48576,0.57639 0.59683,0.17202 l 3.11929,-10.84596 c 0.46088,-1.59955 -0.496,-3.279141 -2.12127,-3.747441 -1.62528,-0.46826 -3.32913,0.44474 -3.79001,2.044291 z"
         style="fill:#85cbcf;fill-opacity:1;stroke:#85cbcf;stroke-width:0.17952862;stroke-miterlimit:4;stroke-dasharray:none;stroke-opacity:1" />
      <rect
         ry="0.317489"
         transform="rotate(-74.253442)"
         y="121.30479"
         x="-79.673325"
         height="0.634978"
         width="10.994428"
         id="rect4615"
         style="opacity:1;vector-effect:none;fill:#85cbcf;fill-opacity:1;stroke:#85cbcf;stroke-width:0.12713078;stroke-linecap:butt;stroke-linejoin:miter;stroke-miterlimit:4;stroke-dasharray:none;stroke-dashoffset:0;stroke-opacity:1" />
      <rect
         style="opacity:1;vector-effect:none;fill:#85cbcf;fill-opacity:1;stroke:#85cbcf;stroke-width:0.12713078;stroke-linecap:butt;stroke-linejoin:miter;stroke-miterlimit:4;stroke-dasharray:none;stroke-dashoffset:0;stroke-opacity:1"
         id="rect4617"
         width="10.994428"
         height="0.634978"
         x="-78.47377"
         y="122.80421"
         transform="rotate(-74.253442)"
         ry="0.317489" />
      <rect
         ry="0.3214072"
         transform="rotate(-74.253442)"
         y="124.29971"
         x="-79.677254"
         height="0.6428144"
         width="9.562788"
         id="rect4619"
         style="opacity:1;vector-effect:none;fill:#85cbcf;fill-opacity:1;stroke:#85cbcf;stroke-width:0.11929441;stroke-linecap:butt;stroke-linejoin:miter;stroke-miterlimit:4;stroke-dasharray:none;stroke-dashoffset:0;stroke-opacity:1" />
      <rect
         style="opacity:1;vector-effect:none;fill:#85cbcf;fill-opacity:1;stroke:#85cbcf;stroke-width:0.11440143;stroke-linecap:butt;stroke-linejoin:miter;stroke-miterlimit:4;stroke-dasharray:none;stroke-dashoffset:0;stroke-opacity:1"
         id="rect4621"
         width="8.7279863"
         height="0.64770728"
         x="-77.580475"
         y="125.67673"
         transform="rotate(-74.253442)"
         ry="0.32385364" />
      <rect
         ry="0.32625031"
         transform="rotate(-74.253442)"
         y="127.29373"
         x="-76.50325"
         height="0.65250063"
         width="7.9530635"
         id="rect4623"
         style="opacity:1;vector-effect:none;fill:#85cbcf;fill-opacity:1;stroke:#85cbcf;stroke-width:0.10960811;stroke-linecap:butt;stroke-linejoin:miter;stroke-miterlimit:4;stroke-dasharray:none;stroke-dashoffset:0;stroke-opacity:1" />
      <rect
         style="opacity:1;vector-effect:none;fill:#85cbcf;fill-opacity:1;stroke:#85cbcf;stroke-width:0.10084017;stroke-linecap:butt;stroke-linejoin:miter;stroke-miterlimit:4;stroke-dasharray:none;stroke-dashoffset:0;stroke-opacity:1"
         id="rect4625"
         width="6.642312"
         height="0.66126853"
         x="-74.828224"
         y="128.79359"
         transform="rotate(-74.253442)"
         ry="0.33063427" />
      <rect
         ry="0.33507094"
         transform="rotate(-74.253442)"
         y="130.16861"
         x="-75.612358"
         height="0.67014188"
         width="5.451622"
         id="rect4627"
         style="opacity:1;vector-effect:none;fill:#85cbcf;fill-opacity:1;stroke:#85cbcf;stroke-width:0.09196683;stroke-linecap:butt;stroke-linejoin:miter;stroke-miterlimit:4;stroke-dasharray:none;stroke-dashoffset:0;stroke-opacity:1" />
      <rect
         style="opacity:1;vector-effect:none;fill:#85cbcf;fill-opacity:1;stroke:#85cbcf;stroke-width:0.08661443;stroke-linecap:butt;stroke-linejoin:miter;stroke-miterlimit:4;stroke-dasharray:none;stroke-dashoffset:0;stroke-opacity:1"
         id="rect4629"
         width="4.7972145"
         height="0.67549431"
         x="-76.934555"
         y="131.48541"
         transform="rotate(-74.253442)"
         ry="0.33774716" />
      <rect
         ry="0.3434889"
         transform="rotate(-74.253442)"
         y="132.67926"
         x="-78.019913"
         height="0.6869778"
         width="3.5491567"
         id="rect4631"
         style="opacity:1;vector-effect:none;fill:#85cbcf;fill-opacity:1;stroke:#85cbcf;stroke-width:0.07513094;stroke-linecap:butt;stroke-linejoin:miter;stroke-miterlimit:4;stroke-dasharray:none;stroke-dashoffset:0;stroke-opacity:1" />
    </g>
    <g
       transform="translate(-16.195573,50.132942)"
       id="g4594"
       inkscape:export-xdpi="300"
       inkscape:export-ydpi="300">
      <rect
         style="opacity:1;vector-effect:none;fill:#ffffff;fill-opacity:1;stroke:none;stroke-width:0.17977601px;stroke-linecap:butt;stroke-linejoin:miter;stroke-miterlimit:4;stroke-dasharray:none;stroke-dashoffset:0;stroke-opacity:1"
         id="rect3284-35"
         width="7.8176351"
         height="7.8844504"
         x="49.611904"
         y="77.371262" />
      <g
         transform="matrix(0.13033427,0.00492735,-0.00492735,0.13033427,49.808145,77.418389)"
         id="g14389"
         style="fill:#004e5e;fill-opacity:1">
        <path
           id="path14321"
           d="M 10.111,36.662 C 9.62,36.299 9.146,35.892 8.702,35.455 8.308,35.067 7.676,35.071 7.288,35.465 c -0.388,0.394 -0.384,1.026 0.01,1.414 0.512,0.504 1.058,0.973 1.624,1.391 0.179,0.133 0.388,0.196 0.594,0.196 0.307,0 0.609,-0.141 0.805,-0.405 0.328,-0.445 0.235,-1.071 -0.21,-1.399 z"
           inkscape:connector-curvature="0"
           style="fill:#004e5e;fill-opacity:1;stroke:#004e5e;stroke-width:1.13319921;stroke-miterlimit:4;stroke-dasharray:none;stroke-opacity:1" />
        <path
           id="path14323"
           d="m 36.759,41.299 c 0.073,0 0.147,-0.008 0.222,-0.024 0.68,-0.153 1.344,-0.323 1.991,-0.508 0.531,-0.151 0.839,-0.705 0.688,-1.236 -0.152,-0.531 -0.703,-0.833 -1.236,-0.688 -0.612,0.175 -1.241,0.335 -1.884,0.48 -0.538,0.122 -0.876,0.657 -0.755,1.196 0.105,0.465 0.517,0.78 0.974,0.78 z"
           inkscape:connector-curvature="0"
           style="fill:#004e5e;fill-opacity:1;stroke:#004e5e;stroke-width:1.13319921;stroke-miterlimit:4;stroke-dasharray:none;stroke-opacity:1" />
        <path
           id="path14325"
           d="m 24.801,42.123 c 0.654,0.017 1.325,0.027 2.016,0.034 0.003,0 0.007,0 0.01,0 0.548,0 0.994,-0.441 1,-0.99 0.006,-0.552 -0.438,-1.004 -0.99,-1.01 -0.679,-0.007 -1.34,-0.018 -1.984,-0.034 -0.009,0 -0.018,0 -0.025,0 -0.541,0 -0.985,0.431 -1,0.975 -0.016,0.551 0.42,1.01 0.973,1.025 z"
           inkscape:connector-curvature="0"
           style="fill:#004e5e;fill-opacity:1;stroke:#004e5e;stroke-width:1.13319921;stroke-miterlimit:4;stroke-dasharray:none;stroke-opacity:1" />
        <path
           id="path14327"
           d="m 12.656,40.302 c 0.629,0.243 1.302,0.462 1.998,0.65 0.088,0.024 0.176,0.035 0.263,0.035 0.44,0 0.844,-0.293 0.964,-0.738 0.145,-0.533 -0.17,-1.082 -0.703,-1.227 -0.63,-0.171 -1.236,-0.368 -1.801,-0.586 -0.517,-0.199 -1.096,0.057 -1.293,0.572 -0.199,0.517 0.058,1.096 0.572,1.294 z"
           inkscape:connector-curvature="0"
           style="fill:#004e5e;fill-opacity:1;stroke:#004e5e;stroke-width:1.13319921;stroke-miterlimit:4;stroke-dasharray:none;stroke-opacity:1" />
        <path
           id="path14329"
           d="m 42.478,39.5 c 0.126,0 0.255,-0.023 0.379,-0.074 0.65,-0.267 1.278,-0.545 1.882,-0.833 0.498,-0.238 0.709,-0.836 0.471,-1.334 -0.238,-0.499 -0.834,-0.709 -1.334,-0.471 -0.568,0.272 -1.161,0.535 -1.776,0.786 -0.511,0.209 -0.756,0.793 -0.547,1.305 0.157,0.387 0.531,0.621 0.925,0.621 z"
           inkscape:connector-curvature="0"
           style="fill:#004e5e;fill-opacity:1;stroke:#004e5e;stroke-width:1.13319921;stroke-miterlimit:4;stroke-dasharray:none;stroke-opacity:1" />
        <path
           id="path14331"
           d="m 18.72,41.722 c 0.655,0.081 1.333,0.148 2.034,0.203 0.026,0.002 0.053,0.003 0.079,0.003 0.517,0 0.955,-0.397 0.996,-0.922 0.043,-0.551 -0.368,-1.032 -0.919,-1.075 -0.67,-0.053 -1.318,-0.116 -1.946,-0.193 -0.539,-0.07 -1.046,0.321 -1.114,0.87 -0.069,0.548 0.321,1.047 0.87,1.114 z"
           inkscape:connector-curvature="0"
           style="fill:#004e5e;fill-opacity:1;stroke:#004e5e;stroke-width:1.13319921;stroke-miterlimit:4;stroke-dasharray:none;stroke-opacity:1" />
        <path
           id="path14333"
           d="m 30.822,42.119 c 0.018,0 0.035,0 0.053,-10e-4 0.693,-0.036 1.377,-0.093 2.048,-0.165 0.549,-0.06 0.946,-0.552 0.887,-1.102 -0.059,-0.548 -0.531,-0.945 -1.102,-0.887 -0.634,0.068 -1.28,0.121 -1.937,0.155 -0.552,0.029 -0.976,0.5 -0.947,1.051 0.029,0.535 0.47,0.949 0.998,0.949 z"
           inkscape:connector-curvature="0"
           style="fill:#004e5e;fill-opacity:1;stroke:#004e5e;stroke-width:1.13319921;stroke-miterlimit:4;stroke-dasharray:none;stroke-opacity:1" />
        <path
           id="path14335"
           d="m 47.81,36.759 c 0.184,0 0.369,-0.051 0.535,-0.156 0.599,-0.381 1.174,-0.774 1.709,-1.171 0.443,-0.329 0.536,-0.956 0.208,-1.399 -0.329,-0.444 -0.957,-0.537 -1.399,-0.208 -0.497,0.369 -1.032,0.735 -1.59,1.091 -0.467,0.296 -0.604,0.914 -0.308,1.38 0.19,0.299 0.514,0.463 0.845,0.463 z"
           inkscape:connector-curvature="0"
           style="fill:#004e5e;fill-opacity:1;stroke:#004e5e;stroke-width:1.13319921;stroke-miterlimit:4;stroke-dasharray:none;stroke-opacity:1" />
        <path
           id="path14337"
           d="m 53.531,30.32 c -0.467,-0.296 -1.084,-0.152 -1.378,0.315 -0.129,0.204 -0.296,0.429 -0.497,0.668 -0.356,0.423 -0.302,1.054 0.12,1.409 0.188,0.158 0.417,0.235 0.644,0.235 0.285,0 0.568,-0.121 0.766,-0.355 0.262,-0.311 0.484,-0.611 0.661,-0.895 0.294,-0.467 0.152,-1.084 -0.316,-1.377 z"
           inkscape:connector-curvature="0"
           style="fill:#004e5e;fill-opacity:1;stroke:#004e5e;stroke-width:1.13319921;stroke-miterlimit:4;stroke-dasharray:none;stroke-opacity:1" />
        <path
           id="path14339"
           d="M 55,19.833 C 55,18.691 54.524,17.648 53.668,16.708 56.526,15.022 58,13.072 58,11.167 58,6.158 47.836,0.833 29,0.833 10.164,0.833 0,6.158 0,11.167 0,13.072 1.474,15.022 4.332,16.709 3.476,17.649 3,18.691 3,19.833 c 0,6.062 13.396,9.333 26,9.333 12.604,0 26,-3.271 26,-9.333 z M 2,11.167 C 2,7.226 13.089,2.834 29,2.834 c 15.911,0 27,4.392 27,8.333 0,1.405 -1.416,2.867 -3.952,4.168 C 47.408,12.171 38.004,10.5 29,10.5 19.996,10.5 10.592,12.17 5.952,15.334 3.416,14.034 2,12.572 2,11.167 Z m 47.803,5.162 C 45.012,18.175 37.736,19.5 29,19.5 20.264,19.5 12.988,18.175 8.197,16.328 12.194,14.185 19.661,12.5 29,12.5 c 9.339,0 16.806,1.685 20.803,3.829 z M 5,19.833 C 5,19.12 5.423,18.39 6.208,17.68 11.082,19.924 18.755,21.5 29,21.5 c 10.245,0 17.918,-1.577 22.792,-3.82 0.785,0.711 1.208,1.44 1.208,2.153 0,3.469 -9.856,7.333 -24,7.333 -14.144,0 -24,-3.864 -24,-7.333 z"
           inkscape:connector-curvature="0"
           style="fill:#004e5e;fill-opacity:1;stroke:#004e5e;stroke-width:1.13319921;stroke-miterlimit:4;stroke-dasharray:none;stroke-opacity:1" />
        <path
           id="path14341"
           d="m 13.817,34.002 c 0.413,0 0.8,-0.258 0.944,-0.671 0.182,-0.521 -0.094,-1.092 -0.615,-1.273 -0.638,-0.223 -1.232,-0.46 -1.767,-0.707 -0.506,-0.234 -1.097,-0.013 -1.327,0.489 -0.231,0.502 -0.012,1.096 0.489,1.327 0.593,0.273 1.247,0.535 1.946,0.779 0.11,0.039 0.221,0.056 0.33,0.056 z"
           inkscape:connector-curvature="0"
           style="fill:#004e5e;fill-opacity:1;stroke:#004e5e;stroke-width:1.13319921;stroke-miterlimit:4;stroke-dasharray:none;stroke-opacity:1" />
        <path
           id="path14343"
           d="m 8,27.167 c -0.553,0 -1,0.447 -1,1 0,0.849 0.314,1.671 0.935,2.442 0.197,0.246 0.487,0.374 0.78,0.374 0.22,0 0.44,-0.072 0.625,-0.221 0.431,-0.346 0.5,-0.975 0.153,-1.405 C 9.166,28.949 9,28.548 9,28.167 c 0,-0.553 -0.447,-1 -1,-1 z"
           inkscape:connector-curvature="0"
           style="fill:#004e5e;fill-opacity:1;stroke:#004e5e;stroke-width:1.13319921;stroke-miterlimit:4;stroke-dasharray:none;stroke-opacity:1" />
        <path
           id="path14345"
           d="m 19.64,35.434 c 0.48,0 0.904,-0.347 0.985,-0.836 0.091,-0.545 -0.277,-1.061 -0.822,-1.15 -0.661,-0.109 -1.302,-0.23 -1.92,-0.363 -0.544,-0.12 -1.072,0.229 -1.188,0.768 -0.116,0.54 0.228,1.072 0.768,1.188 0.647,0.139 1.319,0.266 2.012,0.381 0.055,0.008 0.111,0.012 0.165,0.012 z"
           inkscape:connector-curvature="0"
           style="fill:#004e5e;fill-opacity:1;stroke:#004e5e;stroke-width:1.13319921;stroke-miterlimit:4;stroke-dasharray:none;stroke-opacity:1" />
        <path
           id="path14347"
           d="m 38.516,33.997 c -0.115,-0.54 -0.65,-0.891 -1.187,-0.769 -0.637,0.136 -1.279,0.259 -1.925,0.369 -0.544,0.093 -0.91,0.608 -0.817,1.153 0.083,0.487 0.506,0.832 0.984,0.832 0.056,0 0.112,-0.005 0.169,-0.015 0.673,-0.114 1.343,-0.243 2.007,-0.385 0.54,-0.113 0.884,-0.644 0.769,-1.185 z"
           inkscape:connector-curvature="0"
           style="fill:#004e5e;fill-opacity:1;stroke:#004e5e;stroke-width:1.13319921;stroke-miterlimit:4;stroke-dasharray:none;stroke-opacity:1" />
        <path
           id="path14349"
           d="m 25.604,36.075 c 0.527,0 0.969,-0.413 0.998,-0.946 0.029,-0.552 -0.395,-1.022 -0.945,-1.053 -0.664,-0.035 -1.319,-0.082 -1.961,-0.139 -0.556,-0.054 -1.035,0.358 -1.084,0.908 -0.049,0.55 0.358,1.035 0.908,1.084 0.665,0.059 1.342,0.107 2.029,0.145 0.018,0.001 0.036,0.001 0.055,0.001 z"
           inkscape:connector-curvature="0"
           style="fill:#004e5e;fill-opacity:1;stroke:#004e5e;stroke-width:1.13319921;stroke-miterlimit:4;stroke-dasharray:none;stroke-opacity:1" />
        <path
           id="path14351"
           d="m 32.598,34.996 c -0.04,-0.55 -0.506,-0.971 -1.07,-0.924 -0.65,0.047 -1.299,0.077 -1.942,0.089 -0.553,0.01 -0.992,0.466 -0.982,1.018 0.01,0.546 0.456,0.982 1,0.982 0.006,0 0.012,0 0.018,0 0.681,-0.012 1.366,-0.044 2.054,-0.095 0.549,-0.04 0.962,-0.52 0.922,-1.07 z"
           inkscape:connector-curvature="0"
           style="fill:#004e5e;fill-opacity:1;stroke:#004e5e;stroke-width:1.13319921;stroke-miterlimit:4;stroke-dasharray:none;stroke-opacity:1" />
        <path
           id="path14353"
           d="m 44.262,32.256 c -0.182,-0.521 -0.754,-0.798 -1.273,-0.615 -0.606,0.211 -1.229,0.414 -1.864,0.606 -0.528,0.16 -0.827,0.718 -0.667,1.247 0.131,0.432 0.527,0.71 0.957,0.71 0.096,0 0.193,-0.014 0.29,-0.043 0.661,-0.2 1.311,-0.411 1.942,-0.632 0.521,-0.181 0.796,-0.751 0.615,-1.273 z"
           inkscape:connector-curvature="0"
           style="fill:#004e5e;fill-opacity:1;stroke:#004e5e;stroke-width:1.13319921;stroke-miterlimit:4;stroke-dasharray:none;stroke-opacity:1" />
        <path
           id="path14355"
           d="m 47.45,32.004 c 0.649,-0.299 1.267,-0.605 1.847,-0.916 0.487,-0.261 0.671,-0.867 0.41,-1.354 -0.262,-0.487 -0.869,-0.67 -1.354,-0.41 -0.547,0.293 -1.129,0.582 -1.739,0.863 -0.502,0.23 -0.722,0.825 -0.49,1.326 0.169,0.366 0.53,0.582 0.909,0.582 0.14,10e-4 0.282,-0.028 0.417,-0.091 z"
           inkscape:connector-curvature="0"
           style="fill:#004e5e;fill-opacity:1;stroke:#004e5e;stroke-width:1.13319921;stroke-miterlimit:4;stroke-dasharray:none;stroke-opacity:1" />
        <path
           id="path14357"
           d="m 52.681,25.991 c -0.259,0.392 -0.652,0.813 -1.169,1.254 -0.421,0.358 -0.471,0.989 -0.112,1.409 0.197,0.232 0.479,0.352 0.761,0.352 0.229,0 0.46,-0.078 0.648,-0.239 0.659,-0.562 1.178,-1.124 1.54,-1.67 0.305,-0.461 0.179,-1.081 -0.281,-1.387 -0.463,-0.306 -1.084,-0.179 -1.387,0.281 z"
           inkscape:connector-curvature="0"
           style="fill:#004e5e;fill-opacity:1;stroke:#004e5e;stroke-width:1.13319921;stroke-miterlimit:4;stroke-dasharray:none;stroke-opacity:1" />
        <path
           id="path14359"
           d="m 33.624,46.43 c -0.077,-0.546 -0.573,-0.932 -1.13,-0.851 -0.646,0.091 -1.291,0.158 -1.918,0.2 -0.551,0.037 -0.968,0.515 -0.931,1.065 0.036,0.528 0.476,0.933 0.997,0.933 0.022,0 0.045,-10e-4 0.068,-0.002 0.675,-0.046 1.368,-0.118 2.063,-0.216 0.547,-0.076 0.928,-0.581 0.851,-1.129 z"
           inkscape:connector-curvature="0"
           style="fill:#004e5e;fill-opacity:1;stroke:#004e5e;stroke-width:1.13319921;stroke-miterlimit:4;stroke-dasharray:none;stroke-opacity:1" />
        <path
           id="path14361"
           d="m 39.412,44.858 c -0.174,-0.523 -0.737,-0.809 -1.265,-0.632 -0.606,0.202 -1.229,0.392 -1.861,0.564 -0.532,0.146 -0.847,0.695 -0.701,1.229 0.122,0.444 0.524,0.736 0.964,0.736 0.088,0 0.177,-0.012 0.265,-0.035 0.668,-0.183 1.325,-0.384 1.967,-0.598 0.523,-0.173 0.806,-0.74 0.631,-1.264 z"
           inkscape:connector-curvature="0"
           style="fill:#004e5e;fill-opacity:1;stroke:#004e5e;stroke-width:1.13319921;stroke-miterlimit:4;stroke-dasharray:none;stroke-opacity:1" />
        <path
           id="path14363"
           d="m 26.679,45.793 c -0.672,-0.023 -1.327,-0.057 -1.965,-0.1 -0.543,-0.021 -1.027,0.381 -1.064,0.932 -0.036,0.552 0.381,1.027 0.932,1.064 0.659,0.043 1.336,0.078 2.029,0.102 0.012,0.001 0.023,0.001 0.035,0.001 0.536,0 0.979,-0.426 0.998,-0.966 0.019,-0.551 -0.414,-1.014 -0.965,-1.033 z"
           inkscape:connector-curvature="0"
           style="fill:#004e5e;fill-opacity:1;stroke:#004e5e;stroke-width:1.13319921;stroke-miterlimit:4;stroke-dasharray:none;stroke-opacity:1" />
        <path
           id="path14365"
           d="M 44.859,42.343 C 44.6,41.856 43.993,41.672 43.506,41.93 c -0.551,0.293 -1.133,0.582 -1.742,0.863 -0.502,0.23 -0.722,0.824 -0.49,1.326 0.168,0.366 0.53,0.582 0.909,0.582 0.14,0 0.282,-0.029 0.417,-0.092 0.646,-0.297 1.264,-0.604 1.846,-0.914 0.489,-0.259 0.673,-0.864 0.413,-1.352 z"
           inkscape:connector-curvature="0"
           style="fill:#004e5e;fill-opacity:1;stroke:#004e5e;stroke-width:1.13319921;stroke-miterlimit:4;stroke-dasharray:none;stroke-opacity:1" />
        <path
           id="path14367"
           d="m 15.148,44.044 c -0.674,-0.235 -1.234,-0.486 -1.619,-0.727 -0.47,-0.292 -1.087,-0.148 -1.378,0.319 -0.292,0.469 -0.149,1.086 0.319,1.378 0.517,0.321 1.195,0.631 2.02,0.918 0.108,0.038 0.22,0.056 0.329,0.056 0.413,0 0.801,-0.258 0.944,-0.671 0.182,-0.521 -0.093,-1.091 -0.615,-1.273 z"
           inkscape:connector-curvature="0"
           style="fill:#004e5e;fill-opacity:1;stroke:#004e5e;stroke-width:1.13319921;stroke-miterlimit:4;stroke-dasharray:none;stroke-opacity:1" />
        <path
           id="path14369"
           d="m 48.095,38.69 c -0.31,0.354 -0.772,0.769 -1.338,1.199 -0.439,0.335 -0.524,0.962 -0.19,1.401 0.197,0.259 0.495,0.395 0.797,0.395 0.211,0 0.424,-0.066 0.604,-0.204 0.681,-0.518 1.229,-1.014 1.633,-1.475 0.363,-0.415 0.321,-1.047 -0.095,-1.411 -0.414,-0.363 -1.047,-0.323 -1.411,0.095 z"
           inkscape:connector-curvature="0"
           style="fill:#004e5e;fill-opacity:1;stroke:#004e5e;stroke-width:1.13319921;stroke-miterlimit:4;stroke-dasharray:none;stroke-opacity:1" />
        <path
           id="path14371"
           d="m 20.807,45.3 c -0.678,-0.095 -1.322,-0.199 -1.932,-0.312 -0.545,-0.105 -1.065,0.259 -1.165,0.802 -0.101,0.543 0.259,1.064 0.802,1.165 0.637,0.118 1.311,0.227 2.02,0.325 0.047,0.007 0.093,0.01 0.139,0.01 0.491,0 0.92,-0.361 0.989,-0.862 0.075,-0.547 -0.306,-1.052 -0.853,-1.128 z"
           inkscape:connector-curvature="0"
           style="fill:#004e5e;fill-opacity:1;stroke:#004e5e;stroke-width:1.13319921;stroke-miterlimit:4;stroke-dasharray:none;stroke-opacity:1" />
        <path
           id="path14373"
           d="m 12.57,54.999 c -0.652,0.034 -1.313,0.063 -1.984,0.089 -0.553,0.021 -0.983,0.484 -0.962,1.036 0.02,0.54 0.464,0.963 0.998,0.963 0.013,0 0.025,0 0.038,-0.001 0.681,-0.025 1.352,-0.055 2.014,-0.089 0.552,-0.029 0.976,-0.499 0.947,-1.051 -0.029,-0.553 -0.513,-0.979 -1.051,-0.947 z"
           inkscape:connector-curvature="0"
           style="fill:#004e5e;fill-opacity:1;stroke:#004e5e;stroke-width:1.13319921;stroke-miterlimit:4;stroke-dasharray:none;stroke-opacity:1" />
        <path
           id="path14375"
           d="m 35.786,50.737 c -0.592,0.223 -1.208,0.439 -1.848,0.651 -0.524,0.173 -0.809,0.739 -0.635,1.264 0.139,0.42 0.529,0.686 0.949,0.686 0.104,0 0.21,-0.017 0.314,-0.051 0.665,-0.22 1.307,-0.446 1.924,-0.679 0.517,-0.194 0.778,-0.771 0.583,-1.288 -0.193,-0.517 -0.77,-0.778 -1.287,-0.583 z"
           inkscape:connector-curvature="0"
           style="fill:#004e5e;fill-opacity:1;stroke:#004e5e;stroke-width:1.13319921;stroke-miterlimit:4;stroke-dasharray:none;stroke-opacity:1" />
        <path
           id="path14377"
           d="m 41.041,48.256 c -0.523,0.314 -1.091,0.626 -1.688,0.928 -0.493,0.249 -0.691,0.85 -0.442,1.343 0.176,0.349 0.528,0.55 0.894,0.55 0.151,0 0.305,-0.034 0.449,-0.107 0.641,-0.323 1.252,-0.659 1.816,-0.998 0.474,-0.284 0.627,-0.899 0.343,-1.372 -0.284,-0.473 -0.897,-0.628 -1.372,-0.344 z"
           inkscape:connector-curvature="0"
           style="fill:#004e5e;fill-opacity:1;stroke:#004e5e;stroke-width:1.13319921;stroke-miterlimit:4;stroke-dasharray:none;stroke-opacity:1" />
        <path
           id="path14379"
           d="m 46.531,44.32 c -0.468,-0.295 -1.085,-0.151 -1.378,0.315 -0.283,0.45 -0.659,0.909 -1.118,1.365 -0.393,0.39 -0.395,1.022 -0.006,1.414 0.195,0.197 0.453,0.296 0.71,0.296 0.255,0 0.51,-0.097 0.704,-0.29 0.568,-0.563 1.04,-1.144 1.403,-1.723 0.295,-0.467 0.153,-1.084 -0.315,-1.377 z"
           inkscape:connector-curvature="0"
           style="fill:#004e5e;fill-opacity:1;stroke:#004e5e;stroke-width:1.13319921;stroke-miterlimit:4;stroke-dasharray:none;stroke-opacity:1" />
        <path
           id="path14381"
           d="m 30.164,52.488 c -0.621,0.16 -1.261,0.313 -1.917,0.462 -0.538,0.122 -0.876,0.657 -0.755,1.196 0.105,0.464 0.518,0.779 0.975,0.779 0.073,0 0.147,-0.008 0.222,-0.024 0.676,-0.152 1.333,-0.312 1.974,-0.476 0.535,-0.138 0.857,-0.683 0.72,-1.218 -0.137,-0.535 -0.684,-0.855 -1.219,-0.719 z"
           inkscape:connector-curvature="0"
           style="fill:#004e5e;fill-opacity:1;stroke:#004e5e;stroke-width:1.13319921;stroke-miterlimit:4;stroke-dasharray:none;stroke-opacity:1" />
        <path
           id="path14383"
           d="m 18.496,54.531 c -0.646,0.069 -1.304,0.134 -1.971,0.192 -0.551,0.049 -0.957,0.534 -0.908,1.084 0.046,0.521 0.482,0.912 0.995,0.912 0.029,0 0.06,-10e-4 0.089,-0.004 0.681,-0.061 1.35,-0.125 2.01,-0.196 0.549,-0.059 0.946,-0.552 0.887,-1.102 -0.059,-0.547 -0.526,-0.945 -1.102,-0.886 z"
           inkscape:connector-curvature="0"
           style="fill:#004e5e;fill-opacity:1;stroke:#004e5e;stroke-width:1.13319921;stroke-miterlimit:4;stroke-dasharray:none;stroke-opacity:1" />
        <path
           id="path14385"
           d="m 24.375,53.715 c -0.639,0.11 -1.289,0.214 -1.953,0.313 -0.546,0.082 -0.923,0.592 -0.841,1.138 0.074,0.496 0.501,0.852 0.988,0.852 0.049,0 0.099,-0.004 0.149,-0.011 0.678,-0.102 1.344,-0.209 1.996,-0.321 0.544,-0.094 0.909,-0.611 0.815,-1.155 -0.094,-0.544 -0.61,-0.908 -1.154,-0.816 z"
           inkscape:connector-curvature="0"
           style="fill:#004e5e;fill-opacity:1;stroke:#004e5e;stroke-width:1.13319921;stroke-miterlimit:4;stroke-dasharray:none;stroke-opacity:1" />
        <path
           id="path14387"
           d="m 6.625,55.166 c -0.002,0 -0.003,0 -0.005,0 L 6,55.167 c -0.553,0 -1,0.447 -1,1 0,0.553 0.447,1 1,1 l 0.63,-0.001 c 0.552,-0.003 0.998,-0.452 0.995,-1.005 -0.003,-0.551 -0.45,-0.995 -1,-0.995 z"
           inkscape:connector-curvature="0"
           style="fill:#004e5e;fill-opacity:1;stroke:#004e5e;stroke-width:1.13319921;stroke-miterlimit:4;stroke-dasharray:none;stroke-opacity:1" />
      </g>
    </g>
  </g>
</svg>
