<?xml version="1.0" encoding="UTF-8" standalone="no"?>
<!-- Created with Inkscape (http://www.inkscape.org/) -->

<svg
   xmlns:dc="http://purl.org/dc/elements/1.1/"
   xmlns:cc="http://creativecommons.org/ns#"
   xmlns:rdf="http://www.w3.org/1999/02/22-rdf-syntax-ns#"
   xmlns:svg="http://www.w3.org/2000/svg"
   xmlns="http://www.w3.org/2000/svg"
   xmlns:sodipodi="http://sodipodi.sourceforge.net/DTD/sodipodi-0.dtd"
   xmlns:inkscape="http://www.inkscape.org/namespaces/inkscape"
   width="7.8176351mm"
   height="7.8844504mm"
   viewBox="0 0 7.8176351 7.8844505"
   version="1.1"
   id="svg3926"
   inkscape:version="0.92.3 (2405546, 2018-03-11)"
   sodipodi:docname="wind_step1_variant.svg">
  <defs
     id="defs3920" />
  <sodipodi:namedview
     id="base"
     pagecolor="#ffffff"
     bordercolor="#666666"
     borderopacity="1.0"
     inkscape:pageopacity="0.0"
     inkscape:pageshadow="2"
     inkscape:zoom="11.2"
     inkscape:cx="29.229315"
     inkscape:cy="24.736905"
     inkscape:document-units="mm"
     inkscape:current-layer="layer1"
     showgrid="false"
     fit-margin-top="0"
     fit-margin-left="0"
     fit-margin-right="0"
     fit-margin-bottom="0"
     inkscape:window-width="1920"
     inkscape:window-height="986"
     inkscape:window-x="-11"
     inkscape:window-y="-11"
     inkscape:window-maximized="1" />
  <metadata
     id="metadata3923">
    <rdf:RDF>
      <cc:Work
         rdf:about="">
        <dc:format>image/svg+xml</dc:format>
        <dc:type
           rdf:resource="http://purl.org/dc/dcmitype/StillImage" />
        <dc:title></dc:title>
      </cc:Work>
    </rdf:RDF>
  </metadata>
  <g
     inkscape:label="Ebene 1"
     inkscape:groupmode="layer"
     id="layer1"
     transform="translate(-8.6133914,-233.10754)">
    <path
       id="path14315"
       d="m 12.287932,234.4344 c -0.608288,-0.16001 -1.234462,0.21681 -1.396615,0.8329 a 0.17170689,0.17171066 14.745782 1 0 0.33217,0.087 c 0.115954,-0.44066 0.552469,-0.69998 0.977142,-0.58822 0.424615,0.11197 0.676931,0.5524 0.560951,0.99305 -0.115951,0.44065 -0.552468,0.69998 -0.977138,0.58821 l -2.4653932,-0.6489 a 0.17170689,0.17171066 14.745782 1 0 -0.087433,0.33207 l 2.4653932,0.6489 a 0.17170689,0.17171066 14.745782 0 0 0.01915,0.004 c 0.602166,0.14728 1.21694,-0.22732 1.377385,-0.83691 0.162208,-0.61607 -0.197357,-1.25242 -0.805583,-1.41251 z m 2.877332,1.50129 c -0.889977,-0.23424 -1.806044,0.31614 -2.04405,1.22042 a 0.17170689,0.17171066 14.745782 1 0 0.332171,0.0871 c 0.191845,-0.72886 0.918198,-1.16167 1.624578,-0.97575 0.706387,0.18589 1.125554,0.92024 0.933723,1.64909 -0.191845,0.72885 -0.918195,1.16167 -1.624579,0.97575 l -5.5258542,-1.45447 a 0.17170689,0.17171066 14.745782 1 0 -0.087433,0.33207 l 5.5258512,1.45441 c 0.889977,0.23424 1.806045,-0.31613 2.044054,-1.22042 0.23801,-0.90428 -0.288417,-1.83433 -1.178391,-2.06857 z"
       inkscape:connector-curvature="0"
       style="fill:#85cbcf;fill-opacity:1;stroke-width:0.32444999" />
  </g>
</svg>
